<?xml version="1.0" standalone="no"?>
<svg xmlns="http://www.w3.org/2000/svg" width="544" height="408" viewBox="0 0 544 408">
<title>Basic constituent structure analysis of a sentence (The cat sat on the mat)</title>
<g transform="translate(1,408)scale(1,-1)">
<path d="M14.4419,400.1V399.6
C16.6257,399.474,16.9,399.196,16.9,397.325V386.225
C16.9,384.375,16.5669,384.051,14.4419,383.976V383.501H23.1257
C25.1536,383.501,27,384.026,27.9617,384.875
C28.8975,385.675,29.4,386.8,29.4,388
C29.4,389.1,28.9387,390.1,28.1438,390.825
C27.364,391.5,26.6619,391.8,24.9719,392.2
C26.3237,392.525,26.8699,392.775,27.4939,393.3
C28.1438,393.85,28.6,394.775,28.6,395.8
C28.6,398.599,26.2639,400.099,21.7219,400.099L14.4419,400.1Z
M19.6,391.7
C22.1167,391.7,23.3098,391.563,24.2437,391.15
C25.7256,390.55,26.4,389.55,26.4,387.975
C26.4,386.625,25.8635,385.65,24.8416,385.075
C24.0098,384.625,22.9436,384.401,21.2278,384.401
C19.9539,384.401,19.6,384.631,19.6,385.45V391.7Z
M19.6,392.7V398.375
C19.6,398.9,19.7788,399.2,20.1616,399.2H21.3054
C24.2954,399.2,25.9,397.974,25.9,395.7
C25.9,393.75,24.5146,392.7,22.0596,392.7Z"/>
<path d="M42.792,385.15
C42.3501,384.8,42.0381,384.725,41.6482,384.725
C41.0503,384.725,40.9,385.063,40.9,386.125V391
C40.9,392.3,40.7625,393.025,40.3486,393.625
C39.7769,394.524,38.6587,395.049,37.1248,395.049
C34.6809,395.049,32.8008,393.802,32.8008,392.199
C32.8008,391.625,33.3005,391.125,33.8748,391.125
C34.4985,391.125,35.1006,391.624,35.1006,392.174
C35.1006,392.274,35.0466,392.399,34.9927,392.574
C34.9409,392.799,34.9707,392.999,34.9707,393.174
C34.9707,393.849,35.7776,394.449,36.7866,394.449
C38.0605,394.449,38.8005,393.707,38.8005,392.324V390.799
C34.7698,389.25,34.3247,389.05,33.1987,388.099
C32.627,387.6,32.3008,386.75,32.3008,385.925
C32.3008,384.35,33.4287,383.25,34.9927,383.25
C36.1365,383.25,37.2026,383.775,38.7886,385.075
C38.9185,383.775,39.3865,383.25,40.4524,383.25
C41.3362,383.25,41.8823,383.55,42.7922,384.5L42.792,385.15Z
M38.8,386.575
C38.8,385.8,38.6628,385.575,38.0859,385.275
C37.4622,384.925,36.7341,384.75,36.188,384.75
C35.2781,384.75,34.6,385.578,34.6,386.625V386.725
C34.6,388.2,35.6631,389.1,38.8,390.2Z"/>
<path d="M51.042,391.35L50.9382,394.8H50.7L50.6487,394.7
C50.4148,394.525,50.3889,394.55,50.2849,394.55
C50.1292,394.55,49.8691,394.586,49.583,394.675
C49.0112,394.875,48.4392,395.025,47.7632,395.025
C45.7092,395.025,44.2014,393.729,44.2014,391.9
C44.2014,390.5,45.0403,389.5,47.2693,388.3L48.7771,387.475
C49.687,386.975,50.1011,386.375,50.1011,385.6
C50.1011,384.5,49.2803,383.851,47.9712,383.851
C47.0874,383.851,46.2813,384.156,45.7874,384.676
C45.2415,385.3,45.0076,385.875,44.6694,387.3H44.2275V383.4H44.5913
C44.7732,383.65,44.8772,383.7,45.1892,383.7
C45.4231,383.7,45.7871,383.65,46.385,383.5
C47.1128,383.35,47.8149,383.25,48.283,383.25
C50.2849,383.25,51.9009,384.7,51.9009,386.45
C51.9009,387.7,51.291,388.525,49.7649,389.425L46.957,391.025
C46.2292,391.425,45.8013,392.05,45.8013,392.725
C45.8013,393.725,46.6221,394.425,47.8411,394.425
C49.323,394.425,50.103,393.575,50.7009,391.35Z"/>
<path d="M57.5498,395L53.52,393.625V393.25L53.7278,393.275
C54.0396,393.325,54.3777,393.35,54.6116,393.35
C55.2354,393.35,55.5,392.95,55.5,391.85V386.051
C55.5,384.251,55.2356,383.976,53.4155,383.876V383.501H59.5774V383.876
C57.8616,384,57.7,384.25,57.7,386.051V394.925L57.5498,395Z
M56.3279,400.625
C55.626,400.625,55.0281,400.027,55.0281,399.3
C55.0281,398.6,55.6,398.025,56.3279,398.025
C57.0818,398.025,57.6797,398.575,57.6797,399.3
C57.6797,400,57.0818,400.625,56.3279,400.625Z"/>
<path d="M70.5479,387.4
C69.3,385.65,68.364,385.05,66.8821,385.05
C64.5161,385.05,62.9,387.05,62.9,389.925
C62.9,392.5,64.311,394.35,66.3879,394.35
C67.3237,394.35,67.6619,394.058,67.9219,393.075L68.0776,392.525
C68.2854,391.825,68.7534,391.375,69.3,391.375
C69.9753,391.375,70.5474,391.85,70.5474,392.425
C70.5474,393.825,68.7275,395.05,66.5435,395.05
C65.2695,395.05,63.9436,394.532,62.8777,393.6
C61.5779,392.5,60.9,390.8,60.9,388.825
C60.9,385.575,62.9329,383.25,65.7898,383.25
C66.9597,383.25,68,383.65,68.9358,384.425
C69.6377,385.024,70.1316,385.699,70.9116,387.174Z"/>
<path d="M88.6479,387.4
C87.4,385.65,86.4641,385.05,84.9822,385.05
C82.6162,385.05,81.0,387.05,81.0,389.925
C81.0,392.5,82.4111,394.35,84.488,394.35
C85.4238,394.35,85.762,394.058,86.022,393.075L86.1777,392.525
C86.3855,391.825,86.8535,391.375,87.4,391.375
C88.0754,391.375,88.6475,391.85,88.6475,392.425
C88.6475,393.825,86.8276,395.05,84.6436,395.05
C83.3696,395.05,82.0437,394.532,80.9778,393.6
C79.678,392.5,79,390.8,79,388.825
C79,385.575,81.033,383.25,83.8899,383.25
C85.0598,383.25,86.1,383.65,87.0359,384.425
C87.7378,385.024,88.2317,385.699,89.0117,387.174Z"/>
<path d="M96.3,395.05
C92.9199,395.05,90.6,392.629,90.6,389.15
C90.6,385.775,92.9978,383.25,96.2478,383.25
C99.5237,383.25,102,385.9,102,389.35
C102,392.625,99.616,395.05,96.3,395.05Z
M95.9619,394.35
C98.1458,394.35,99.7,391.929,99.7,388.475
C99.7,385.65,98.5217,383.95,96.5598,383.95
C95.5459,383.95,94.584,384.55,94.0378,385.55
C93.3101,386.85,92.9,388.6,92.9,390.375
C92.9,392.75,94.1199,394.35,95.9617,394.35Z"/>
<path d="M103.216,393.45
C103.372,393.525,103.632,393.55,103.918,393.55
C104.646,393.55,104.9,393.175,104.9,391.95V385.75
C104.9,384.325,104.61,383.975,103.268,383.875V383.5H108.78V383.875
C107.454,383.975,107.1,384.275,107.1,385.175V392.2
C108.331,393.325,108.896,393.65,109.742,393.65
C111.016,393.65,111.6,392.867,111.6,391.2V385.975
C111.6,384.4,111.27,383.975,110.002,383.875V383.5H115.41V383.875
C114.136,384,113.8,384.3,113.8,385.525V391.25
C113.8,393.6,112.665,395.05,110.756,395.05
C109.571,395.05,108.773,394.615,107.022,392.975V394.95L106.804,395
C105.53,394.55,104.646,394.275,103.216,393.875Z"/>
<path d="M123.942,391.35L123.838,394.8H123.6L123.549,394.7
C123.315,394.525,123.289,394.55,123.185,394.55
C123.029,394.55,122.769,394.586,122.483,394.675
C121.911,394.875,121.339,395.025,120.663,395.025
C118.609,395.025,117.101,393.729,117.101,391.9
C117.101,390.5,117.94,389.5,120.169,388.3L121.677,387.475
C122.587,386.975,123.001,386.375,123.001,385.6
C123.001,384.5,122.18,383.851,120.871,383.851
C119.987,383.851,119.181,384.156,118.687,384.676
C118.141,385.3,117.907,385.875,117.569,387.3H117.127V383.4H117.491
C117.673,383.65,117.777,383.7,118.089,383.7
C118.323,383.7,118.687,383.65,119.285,383.5
C120.013,383.35,120.715,383.25,121.183,383.25
C123.185,383.25,124.801,384.7,124.801,386.45
C124.801,387.7,124.191,388.525,122.665,389.425L119.857,391.025
C119.129,391.425,118.701,392.05,118.701,392.725
C118.701,393.725,119.522,394.425,120.741,394.425
C122.223,394.425,123.003,393.575,123.601,391.35Z"/>
<path d="M132.53,394.8H129.9V397.65
C129.9,397.899,129.875,397.975,129.722,397.975
C129.54,397.75,129.384,397.525,129.202,397.275
C128.214,395.9,127.096,394.7,126.68,394.6
C126.394,394.425,126.238,394.25,126.238,394.125
C126.238,394.071,126.264,394.036,126.342,394H127.7V386.425
C127.7,384.325,128.487,383.25,130.034,383.25
C131.308,383.25,132.296,383.85,133.154,385.15L132.816,385.425
C132.27,384.801,131.828,384.551,131.256,384.551
C130.294,384.551,129.9,385.225,129.9,386.8V394H132.53Z"/>
<path d="M137.75,395L133.72,393.625V393.25L133.928,393.275
C134.24,393.325,134.578,393.35,134.812,393.35
C135.435,393.35,135.699,392.95,135.699,391.85V386.051
C135.699,384.251,135.436,383.976,133.615,383.876V383.501H139.777V383.876
C138.062,384,137.899,384.25,137.899,386.051V394.925L137.75,395Z
M136.528,400.625
C135.826,400.625,135.228,400.027,135.228,399.3
C135.228,398.6,135.8,398.025,136.528,398.025
C137.282,398.025,137.88,398.575,137.88,399.3
C137.88,400,137.282,400.625,136.528,400.625Z"/>
<path d="M147.03,394.8H144.4V397.65
C144.4,397.899,144.375,397.975,144.222,397.975
C144.04,397.75,143.884,397.525,143.702,397.275
C142.714,395.9,141.596,394.7,141.18,394.6
C140.894,394.425,140.738,394.25,140.738,394.125
C140.738,394.071,140.764,394.036,140.842,394H142.2V386.425
C142.2,384.325,142.987,383.25,144.534,383.25
C145.808,383.25,146.796,383.85,147.654,385.15L147.316,385.425
C146.77,384.801,146.328,384.551,145.756,384.551
C144.794,384.551,144.4,385.225,144.4,386.8V394H147.03Z"/>
<path d="M160.054,384.75H159.924
C158.728,384.75,158.4,385.025,158.4,386.175V394.799H154.334V394.399
C155.946,394.321,156.2,394.06,156.2,392.75V386.875
C156.2,386.175,156.085,385.825,155.764,385.55
C155.063,385,154.257,384.75,153.477,384.75
C152.463,384.75,151.601,385.578,151.601,386.6V394.8H147.835V394.4
C149.083,394.325,149.401,393.95,149.401,392.8V386.5
C149.401,384.525,150.667,383.25,152.593,383.25
C153.554,383.25,154.568,383.65,155.271,384.325L156.33,385.4V383.325
L156.492,383.276C157.792,383.775,158.728,384.051,160.054,384.4Z"/>
<path d="M171.208,387.6
C169.96,385.7,168.842,384.95,167.178,384.95
C165.696,384.95,164.578,385.683,163.824,387.125
C163.356,388.068,163.174,388.887,163.122,390.4H171.13
C170.922,392.038,170.662,392.769,170.012,393.574
C169.232,394.474,168.036,395.049,166.684,395.049
C165.385,395.049,164.162,394.583,163.175,393.699
C161.953,392.675,161.251,390.9,161.251,388.85
C161.251,385.4,163.123,383.25,166.113,383.25
C168.583,383.25,170.532,384.725,171.625,387.425L171.208,387.6Z
M163.174,391.2
C163.46,393.167,164.344,394.15,165.93,394.15
C167.516,394.15,168.14,393.432,168.478,391.2Z"/>
<path d="M172.616,393.45
C172.772,393.525,173.032,393.55,173.318,393.55
C174.046,393.55,174.3,393.175,174.3,391.95V385.75
C174.3,384.325,174.01,383.975,172.668,383.875V383.5H178.18V383.875
C176.854,383.975,176.5,384.275,176.5,385.175V392.2
C177.731,393.325,178.296,393.65,179.142,393.65
C180.416,393.65,181,392.867,181,391.2V385.975
C181,384.4,180.67,383.975,179.402,383.875V383.5H184.81V383.875
C183.536,384,183.2,384.3,183.2,385.525V391.25
C183.2,393.6,182.065,395.05,180.156,395.05
C178.971,395.05,178.173,394.615,176.422,392.975V394.95L176.204,395
C174.93,394.55,174.046,394.275,172.616,393.875Z"/>
<path d="M191.83,394.8H189.2V397.65
C189.2,397.899,189.175,397.975,189.022,397.975
C188.84,397.75,188.684,397.525,188.502,397.275
C187.514,395.9,186.396,394.7,185.98,394.6
C185.694,394.425,185.538,394.25,185.538,394.125
C185.538,394.071,185.564,394.036,185.642,394H187V386.425
C187,384.325,187.787,383.25,189.334,383.25
C190.608,383.25,191.596,383.85,192.454,385.15L192.116,385.425
C191.57,384.801,191.128,384.551,190.556,384.551
C189.594,384.551,189.2,385.225,189.2,386.8V394H191.83Z"/>
<path d="M207.042,391.35L206.938,394.8H206.7L206.648,394.7
C206.415,394.525,206.389,394.55,206.285,394.55
C206.129,394.55,205.869,394.586,205.583,394.675
C205.011,394.875,204.439,395.025,203.763,395.025
C201.709,395.025,200.201,393.729,200.201,391.9
C200.201,390.5,201.04,389.5,203.269,388.3L204.777,387.475
C205.687,386.975,206.101,386.375,206.101,385.6
C206.101,384.5,205.28,383.851,203.971,383.851
C203.087,383.851,202.281,384.156,201.787,384.676
C201.241,385.3,201.007,385.875,200.669,387.3H200.227V383.4H200.591
C200.773,383.65,200.877,383.7,201.189,383.7
C201.423,383.7,201.787,383.65,202.385,383.5
C203.113,383.35,203.815,383.25,204.283,383.25
C206.285,383.25,207.901,384.7,207.901,386.45
C207.901,387.7,207.291,388.525,205.765,389.425L202.957,391.025
C202.229,391.425,201.801,392.05,201.801,392.725
C201.801,393.725,202.622,394.425,203.841,394.425
C205.323,394.425,206.103,393.575,206.701,391.35Z"/>
<path d="M215.63,394.8H213V397.65
C213,397.899,212.975,397.975,212.822,397.975
C212.64,397.75,212.484,397.525,212.302,397.275
C211.314,395.9,210.196,394.7,209.78,394.6
C209.494,394.425,209.338,394.25,209.338,394.125
C209.338,394.071,209.364,394.036,209.442,394H210.8V386.425
C210.8,384.325,211.587,383.25,213.134,383.25
C214.408,383.25,215.396,383.85,216.254,385.15L215.916,385.425
C215.37,384.801,214.928,384.551,214.356,384.551
C213.394,384.551,213,385.225,213,386.8V394H215.63Z"/>
<path d="M216.382,393.25
C216.746,393.325,216.98,393.35,217.292,393.35
C217.942,393.35,218.2,392.95,218.2,391.85V385.6
C218.2,384.35,218.016,384.175,216.33,383.875V383.5H222.57V383.9
C220.802,383.974,220.4,384.344,220.4,385.75V391.375
C220.4,392.175,221.493,393.425,222.18,393.425
C222.335,393.425,222.57,393.3,222.855,393.05
C223.271,392.7,223.557,392.55,223.895,392.55
C224.519,392.55,224.909,392.975,224.909,393.675
C224.909,394.5,224.363,395.05,223.479,395.05
C222.401,395.05,221.657,394.463,220.399,392.65V394.95L220.229,395
C218.852,394.45,217.916,394.125,216.382,393.65Z"/>
<path d="M237.354,384.75H237.224
C236.028,384.75,235.7,385.025,235.7,386.175V394.799H231.634V394.399
C233.246,394.321,233.5,394.06,233.5,392.75V386.875
C233.5,386.175,233.385,385.825,233.064,385.55
C232.362,385,231.556,384.75,230.776,384.75
C229.762,384.75,228.9,385.578,228.9,386.6V394.8H225.135V394.4
C226.382,394.325,226.7,393.95,226.7,392.8V386.5
C226.7,384.525,227.966,383.25,229.892,383.25
C230.854,383.25,231.868,383.65,232.57,384.325L233.63,385.4V383.325
L233.792,383.276C235.092,383.775,236.028,384.051,237.354,384.4Z"/>
<path d="M248.248,387.4
C247,385.65,246.064,385.05,244.582,385.05
C242.216,385.05,240.6,387.05,240.6,389.925
C240.6,392.5,242.011,394.35,244.088,394.35
C245.024,394.35,245.362,394.058,245.622,393.075L245.778,392.525
C245.985,391.825,246.453,391.375,247,391.375
C247.675,391.375,248.247,391.85,248.247,392.425
C248.247,393.825,246.427,395.05,244.243,395.05
C242.969,395.05,241.644,394.532,240.578,393.6
C239.278,392.5,238.6,390.8,238.6,388.825
C238.6,385.575,240.633,383.25,243.49,383.25
C244.66,383.25,245.7,383.65,246.636,384.425
C247.338,385.024,247.832,385.699,248.612,387.174Z"/>
<path d="M256.03,394.8H253.4V397.65
C253.4,397.899,253.375,397.975,253.222,397.975
C253.04,397.75,252.884,397.525,252.702,397.275
C251.714,395.9,250.596,394.7,250.18,394.6
C249.894,394.425,249.738,394.25,249.738,394.125
C249.738,394.071,249.764,394.036,249.842,394H251.2V386.425
C251.2,384.325,251.987,383.25,253.534,383.25
C254.808,383.25,255.796,383.85,256.654,385.15L256.316,385.425
C255.77,384.801,255.328,384.551,254.756,384.551
C253.794,384.551,253.4,385.225,253.4,386.8V394H256.03Z"/>
<path d="M269.154,384.75H269.024
C267.828,384.75,267.5,385.025,267.5,386.175V394.799H263.434V394.399
C265.046,394.321,265.3,394.06,265.3,392.75V386.875
C265.3,386.175,265.185,385.825,264.864,385.55
C264.162,385,263.356,384.75,262.576,384.75
C261.563,384.75,260.7,385.578,260.7,386.6V394.8H256.935V394.4
C258.182,394.325,258.5,393.95,258.5,392.8V386.5
C258.5,384.525,259.766,383.25,261.692,383.25
C262.654,383.25,263.668,383.65,264.37,384.325L265.43,385.4V383.325
L265.592,383.276C266.892,383.775,267.828,384.051,269.154,384.4Z"/>
<path d="M269.882,393.25
C270.246,393.325,270.48,393.35,270.792,393.35
C271.442,393.35,271.7,392.95,271.7,391.85V385.6
C271.7,384.35,271.516,384.175,269.83,383.875V383.5H276.07V383.9
C274.302,383.974,273.9,384.344,273.9,385.75V391.375
C273.9,392.175,274.993,393.425,275.68,393.425
C275.835,393.425,276.07,393.3,276.355,393.05
C276.771,392.7,277.057,392.55,277.395,392.55
C278.019,392.55,278.409,392.975,278.409,393.675
C278.409,394.5,277.863,395.05,276.979,395.05
C275.901,395.05,275.157,394.463,273.899,392.65V394.95L273.729,395
C272.352,394.45,271.416,394.125,269.882,393.65Z"/>
<path d="M288.908,387.6
C287.66,385.7,286.542,384.95,284.878,384.95
C283.396,384.95,282.278,385.683,281.524,387.125
C281.057,388.068,280.875,388.887,280.823,390.4H288.83
C288.623,392.038,288.363,392.769,287.712,393.574
C286.933,394.474,285.737,395.049,284.385,395.049
C283.085,395.049,281.863,394.583,280.875,393.699
C279.653,392.675,278.951,390.9,278.951,388.85
C278.951,385.4,280.823,383.25,283.813,383.25
C286.283,383.25,288.233,384.725,289.325,387.425L288.908,387.6Z
M280.874,391.2
C281.16,393.167,282.044,394.15,283.63,394.15
C285.216,394.15,285.84,393.432,286.177,391.2Z"/>
<path d="M307.892,385.15
C307.45,384.8,307.138,384.725,306.748,384.725
C306.15,384.725,306,385.063,306,386.125V391
C306,392.3,305.862,393.025,305.448,393.625
C304.877,394.524,303.759,395.049,302.225,395.049
C299.781,395.049,297.901,393.802,297.901,392.199
C297.901,391.625,298.4,391.125,298.975,391.125
C299.598,391.125,300.2,391.624,300.2,392.174
C300.2,392.274,300.146,392.399,300.093,392.574
C300.041,392.799,300.071,392.999,300.071,393.174
C300.071,393.849,300.877,394.449,301.886,394.449
C303.16,394.449,303.9,393.707,303.9,392.324V390.799
C299.87,389.25,299.425,389.05,298.299,388.099
C297.727,387.6,297.401,386.75,297.401,385.925
C297.401,384.35,298.529,383.25,300.093,383.25
C301.236,383.25,302.302,383.775,303.888,385.075
C304.018,383.775,304.486,383.25,305.552,383.25
C306.436,383.25,306.982,383.55,307.892,384.5V385.15Z
M303.9,386.575
C303.9,385.8,303.763,385.575,303.186,385.275
C302.562,384.925,301.834,384.75,301.288,384.75
C300.378,384.75,299.7,385.578,299.7,386.625V386.725
C299.7,388.2,300.763,389.1,303.9,390.2Z"/>
<path d="M308.316,393.45
C308.472,393.525,308.732,393.55,309.018,393.55
C309.746,393.55,310,393.175,310,391.95V385.75
C310,384.325,309.71,383.975,308.368,383.875V383.5H313.88V383.875
C312.554,383.975,312.2,384.275,312.2,385.175V392.2
C313.431,393.325,313.996,393.65,314.842,393.65
C316.116,393.65,316.7,392.867,316.7,391.2V385.975
C316.7,384.4,316.37,383.975,315.102,383.875V383.5H320.51V383.875
C319.236,384,318.9,384.3,318.9,385.525V391.25
C318.9,393.6,317.765,395.05,315.856,395.05
C314.671,395.05,313.873,394.615,312.122,392.975V394.95L311.904,395
C310.63,394.55,309.746,394.275,308.316,393.875Z"/>
<path d="M332.392,385.15
C331.95,384.8,331.638,384.725,331.248,384.725
C330.65,384.725,330.5,385.063,330.5,386.125V391
C330.5,392.3,330.362,393.025,329.948,393.625
C329.377,394.524,328.259,395.049,326.725,395.049
C324.281,395.049,322.401,393.802,322.401,392.199
C322.401,391.625,322.9,391.125,323.475,391.125
C324.098,391.125,324.7,391.624,324.7,392.174
C324.7,392.274,324.646,392.399,324.593,392.574
C324.541,392.799,324.571,392.999,324.571,393.174
C324.571,393.849,325.377,394.449,326.386,394.449
C327.66,394.449,328.4,393.707,328.4,392.324V390.799
C324.37,389.25,323.925,389.05,322.799,388.099
C322.227,387.6,321.901,386.75,321.901,385.925
C321.901,384.35,323.029,383.25,324.593,383.25
C325.736,383.25,326.802,383.775,328.388,385.075
C328.518,383.775,328.986,383.25,330.052,383.25
C330.936,383.25,331.482,383.55,332.392,384.5V385.15Z
M328.4,386.575
C328.4,385.8,328.263,385.575,327.686,385.275
C327.062,384.925,326.334,384.75,325.788,384.75
C324.878,384.75,324.2,385.578,324.2,386.625V386.725
C324.2,388.2,325.263,389.1,328.4,390.2Z"/>
<path d="M332.894,399.075H333.05
C333.335,399.1,333.647,399.125,333.855,399.125
C334.687,399.125,334.899,398.775,334.899,397.6V385.675
C334.899,384.325,334.544,384,332.946,383.875V383.5H339.082V383.9
C337.444,383.999,337.1,384.245,337.1,385.6V400.525L337.028,400.575
C335.676,400.15,334.688,399.9,332.894,399.475Z"/>
<path d="M352.05,394.8H348.54V394.4
C349.372,394.4,349.788,394.166,349.788,393.75
C349.788,393.65,349.762,393.5,349.684,393.325L347.162,386.425L344.172,392.75
C344.016,393.1,343.912,393.425,343.912,393.7
C343.912,394.15,344.302,394.325,345.42,394.375V394.8H340.064V394.4
C340.74,394.3,341.182,394.025,341.39,393.6L344.354,387.45L344.432,387.25
L344.822,386.5C345.55,385.251,345.966,384.351,345.966,383.976
C345.966,383.601,345.368,382.026,344.926,381.276
C344.562,380.626,343.99,380.151,343.626,380.151
C343.47,380.151,343.236,380.201,342.976,380.326
C342.482,380.5,342.04,380.601,341.598,380.601
C341,380.601,340.48,380.101,340.48,379.501
C340.48,378.676,341.312,378.001,342.404,378.001
C344.146,378.001,345.394,379.415,346.798,383.051L350.802,393.251
C351.14,394.051,351.426,394.301,352.05,394.375Z"/>
<path d="M360.842,391.35L360.738,394.8H360.5L360.448,394.7
C360.215,394.525,360.189,394.55,360.085,394.55
C359.929,394.55,359.669,394.586,359.383,394.675
C358.811,394.875,358.239,395.025,357.563,395.025
C355.509,395.025,354.001,393.729,354.001,391.9
C354.001,390.5,354.84,389.5,357.069,388.3L358.577,387.475
C359.487,386.975,359.901,386.375,359.901,385.6
C359.901,384.5,359.08,383.851,357.771,383.851
C356.887,383.851,356.081,384.156,355.587,384.676
C355.041,385.3,354.807,385.875,354.469,387.3H354.027V383.4H354.391
C354.573,383.65,354.677,383.7,354.989,383.7
C355.223,383.7,355.587,383.65,356.185,383.5
C356.913,383.35,357.615,383.25,358.083,383.25
C360.085,383.25,361.701,384.7,361.701,386.45
C361.701,387.7,361.091,388.525,359.565,389.425L356.757,391.025
C356.029,391.425,355.601,392.05,355.601,392.725
C355.601,393.725,356.422,394.425,357.641,394.425
C359.123,394.425,359.903,393.575,360.501,391.35Z"/>
<path d="M367.35,395L363.32,393.625V393.25L363.528,393.275
C363.84,393.325,364.178,393.35,364.412,393.35
C365.035,393.35,365.3,392.95,365.3,391.85V386.051
C365.3,384.251,365.036,383.976,363.216,383.876V383.501H369.377V383.876
C367.662,384,367.5,384.25,367.5,386.051V394.925L367.35,395Z
M366.128,400.625
C365.426,400.625,364.828,400.027,364.828,399.3
C364.828,398.6,365.4,398.025,366.128,398.025
C366.882,398.025,367.48,398.575,367.48,399.3
C367.48,400,366.882,400.625,366.128,400.625Z"/>
<path d="M378.142,391.35L378.038,394.8H377.8L377.749,394.7
C377.515,394.525,377.489,394.55,377.385,394.55
C377.229,394.55,376.969,394.586,376.683,394.675
C376.111,394.875,375.539,395.025,374.863,395.025
C372.809,395.025,371.301,393.729,371.301,391.9
C371.301,390.5,372.14,389.5,374.369,388.3L375.877,387.475
C376.787,386.975,377.201,386.375,377.201,385.6
C377.201,384.5,376.38,383.851,375.071,383.851
C374.187,383.851,373.381,384.156,372.887,384.676
C372.341,385.3,372.107,385.875,371.769,387.3H371.327V383.4H371.691
C371.873,383.65,371.977,383.7,372.289,383.7
C372.523,383.7,372.887,383.65,373.485,383.5
C374.213,383.35,374.915,383.25,375.383,383.25
C377.385,383.25,379.001,384.7,379.001,386.45
C379.001,387.7,378.391,388.525,376.865,389.425L374.057,391.025
C373.329,391.425,372.901,392.05,372.901,392.725
C372.901,393.725,373.722,394.425,374.941,394.425
C376.423,394.425,377.203,393.575,377.801,391.35Z"/>
<path d="M393.1,395.05
C389.72,395.05,387.4,392.629,387.4,389.15
C387.4,385.775,389.798,383.25,393.048,383.25
C396.324,383.25,398.8,385.9,398.8,389.35
C398.8,392.625,396.416,395.05,393.1,395.05Z
M392.762,394.35
C394.946,394.35,396.5,391.929,396.5,388.475
C396.5,385.65,395.322,383.95,393.36,383.95
C392.346,383.95,391.384,384.55,390.838,385.55
C390.11,386.85,389.7,388.6,389.7,390.375
C389.7,392.75,390.92,394.35,392.762,394.35Z"/>
<path d="M407.634,394.8H404.474V397.65
C404.474,399.1,404.955,399.875,405.918,399.875
C406.464,399.875,406.828,399.625,407.296,398.9
C407.711,398.25,408.023,398,408.466,398
C409.063,398,409.557,398.45,409.557,399.025
C409.557,399.925,408.414,400.574,406.854,400.574
C405.242,400.574,403.864,399.9,403.188,398.75
C402.512,397.664,402.326,396.775,402.3,394.8H400.146V394H402.3V386.1
C402.3,384.275,402.011,383.975,400.12,383.875V383.5H406.88V383.9
C404.748,383.974,404.5,384.246,404.5,386.1V394H407.634Z"/>
<path d="M426.292,385.15
C425.85,384.8,425.538,384.725,425.148,384.725
C424.55,384.725,424.4,385.063,424.4,386.125V391
C424.4,392.3,424.262,393.025,423.848,393.625
C423.277,394.524,422.158,395.049,420.625,395.049
C418.181,395.049,416.301,393.802,416.301,392.199
C416.301,391.625,416.8,391.125,417.375,391.125
C417.998,391.125,418.6,391.624,418.6,392.174
C418.6,392.274,418.546,392.399,418.492,392.574
C418.441,392.799,418.47,392.999,418.47,393.174
C418.47,393.849,419.277,394.449,420.286,394.449
C421.56,394.449,422.3,393.707,422.3,392.324V390.799
C418.27,389.25,417.824,389.05,416.698,388.099
C416.127,387.6,415.801,386.75,415.801,385.925
C415.801,384.35,416.928,383.25,418.492,383.25
C419.636,383.25,420.702,383.775,422.288,385.075
C422.418,383.775,422.886,383.25,423.952,383.25
C424.836,383.25,425.382,383.55,426.292,384.5V385.15Z
M422.3,386.575
C422.3,385.8,422.163,385.575,421.586,385.275
C420.962,384.925,420.234,384.75,419.688,384.75
C418.778,384.75,418.1,385.578,418.1,386.625V386.725
C418.1,388.2,419.163,389.1,422.3,390.2Z"/>
<path d="M440.942,391.35L440.838,394.8H440.6L440.549,394.7
C440.315,394.525,440.289,394.55,440.185,394.55
C440.029,394.55,439.769,394.586,439.483,394.675
C438.911,394.875,438.339,395.025,437.663,395.025
C435.609,395.025,434.101,393.729,434.101,391.9
C434.101,390.5,434.94,389.5,437.169,388.3L438.677,387.475
C439.587,386.975,440.001,386.375,440.001,385.6
C440.001,384.5,439.18,383.851,437.871,383.851
C436.987,383.851,436.181,384.156,435.687,384.676
C435.141,385.3,434.907,385.875,434.569,387.3H434.127V383.4H434.491
C434.673,383.65,434.777,383.7,435.089,383.7
C435.323,383.7,435.687,383.65,436.285,383.5
C437.013,383.35,437.715,383.25,438.183,383.25
C440.185,383.25,441.801,384.7,441.801,386.45
C441.801,387.7,441.191,388.525,439.665,389.425L436.857,391.025
C436.129,391.425,435.701,392.05,435.701,392.725
C435.701,393.725,436.522,394.425,437.741,394.425
C439.223,394.425,440.003,393.575,440.601,391.35Z"/>
<path d="M453.508,387.6
C452.26,385.7,451.142,384.95,449.478,384.95
C447.996,384.95,446.878,385.683,446.124,387.125
C445.656,388.068,445.474,388.887,445.422,390.4H453.43
C453.222,392.038,452.962,392.769,452.312,393.574
C451.532,394.474,450.336,395.049,448.984,395.049
C447.685,395.049,446.462,394.583,445.475,393.699
C444.253,392.675,443.551,390.9,443.551,388.85
C443.551,385.4,445.423,383.25,448.413,383.25
C450.883,383.25,452.833,384.725,453.925,387.425L453.508,387.6Z
M445.474,391.2
C445.76,393.167,446.644,394.15,448.23,394.15
C449.816,394.15,450.44,393.432,450.778,391.2Z"/>
<path d="M454.916,393.45
C455.072,393.525,455.332,393.55,455.618,393.55
C456.345,393.55,456.6,393.175,456.6,391.95V385.75
C456.6,384.325,456.31,383.975,454.968,383.875V383.5H460.48V383.875
C459.154,383.975,458.8,384.275,458.8,385.175V392.2
C460.031,393.325,460.596,393.65,461.442,393.65
C462.716,393.65,463.3,392.867,463.3,391.2V385.975
C463.3,384.4,462.97,383.975,461.702,383.875V383.5H467.11V383.875
C465.836,384,465.5,384.3,465.5,385.525V391.25
C465.5,393.6,464.365,395.05,462.456,395.05
C461.271,395.05,460.473,394.615,458.722,392.975V394.95L458.504,395
C457.23,394.55,456.346,394.275,454.916,393.875Z"/>
<path d="M474.13,394.8H471.5V397.65
C471.5,397.899,471.475,397.975,471.322,397.975
C471.14,397.75,470.984,397.525,470.802,397.275
C469.814,395.9,468.696,394.7,468.28,394.6
C467.994,394.425,467.838,394.25,467.838,394.125
C467.838,394.071,467.864,394.036,467.942,394H469.3V386.425
C469.3,384.325,470.087,383.25,471.634,383.25
C472.908,383.25,473.896,383.85,474.754,385.15L474.416,385.425
C473.87,384.801,473.428,384.551,472.856,384.551
C471.894,384.551,471.5,385.225,471.5,386.8V394H474.13Z"/>
<path d="M485.308,387.6
C484.06,385.7,482.942,384.95,481.278,384.95
C479.796,384.95,478.678,385.683,477.924,387.125
C477.457,388.068,477.274,388.887,477.222,390.4H485.23
C485.022,392.038,484.762,392.769,484.112,393.574
C483.333,394.474,482.136,395.049,480.784,395.049
C479.485,395.049,478.262,394.583,477.275,393.699
C476.053,392.675,475.351,390.9,475.351,388.85
C475.351,385.4,477.223,383.25,480.213,383.25
C482.683,383.25,484.633,384.725,485.725,387.425L485.308,387.6Z
M477.274,391.2
C477.56,393.167,478.444,394.15,480.03,394.15
C481.616,394.15,482.24,393.432,482.578,391.2Z"/>
<path d="M486.716,393.45
C486.872,393.525,487.132,393.55,487.418,393.55
C488.146,393.55,488.4,393.175,488.4,391.95V385.75
C488.4,384.325,488.11,383.975,486.768,383.875V383.5H492.28V383.875
C490.954,383.975,490.6,384.275,490.6,385.175V392.2
C491.831,393.325,492.396,393.65,493.242,393.65
C494.516,393.65,495.1,392.867,495.1,391.2V385.975
C495.1,384.4,494.77,383.975,493.502,383.875V383.5H498.91V383.875
C497.636,384,497.3,384.3,497.3,385.525V391.25
C497.3,393.6,496.165,395.05,494.256,395.05
C493.071,395.05,492.273,394.615,490.522,392.975V394.95L490.304,395
C489.03,394.55,488.146,394.275,486.716,393.875Z"/>
<path d="M509.648,387.4
C508.4,385.65,507.464,385.05,505.982,385.05
C503.616,385.05,502,387.05,502,389.925
C502,392.5,503.411,394.35,505.488,394.35
C506.424,394.35,506.762,394.058,507.022,393.075L507.178,392.525
C507.385,391.825,507.854,391.375,508.4,391.375
C509.075,391.375,509.647,391.85,509.647,392.425
C509.647,393.825,507.828,395.05,505.644,395.05
C504.37,395.05,503.044,394.532,501.978,393.6
C500.678,392.5,500,390.8,500,388.825
C500,385.575,502.033,383.25,504.89,383.25
C506.06,383.25,507.1,383.65,508.036,384.425
C508.738,385.024,509.232,385.699,510.012,387.174Z"/>
<path d="M521.408,387.6
C520.16,385.7,519.042,384.95,517.378,384.95
C515.896,384.95,514.778,385.683,514.024,387.125
C513.557,388.068,513.375,388.887,513.323,390.4H521.33
C521.123,392.038,520.863,392.769,520.212,393.574
C519.433,394.474,518.237,395.049,516.885,395.049
C515.585,395.049,514.363,394.583,513.375,393.699
C512.153,392.675,511.451,390.9,511.451,388.85
C511.451,385.4,513.323,383.25,516.313,383.25
C518.783,383.25,520.733,384.725,521.825,387.425L521.408,387.6Z
M513.374,391.2
C513.66,393.167,514.544,394.15,516.13,394.15
C517.716,394.15,518.34,393.432,518.677,391.2Z"/>
<path d="M525.936,395.025
C525.156,395.025,524.506,394.352,524.506,393.55
C524.506,392.825,525.156,392.225,525.91,392.225
C526.716,392.225,527.392,392.838,527.392,393.55
C527.392,394.325,526.716,395.025,525.936,395.025Z
M525.936,386.025
C525.156,386.025,524.506,385.364,524.506,384.575
C524.506,383.85,525.156,383.225,525.91,383.225
C526.716,383.225,527.392,383.85,527.392,384.575
C527.392,385.35,526.716,386.025,525.936,386.025Z"/>
<path d="M164.133,347.9V352.868H163.442
C163.281,352.307,163.097,352.134,162.706,352.134
C162.499,352.134,162.246,352.203,161.74,352.387
C160.659,352.755,159.923,352.844,159.049,352.844
C155.921,352.844,154,351.092,154,348.224
C154,346.2,155.2,344.751,157.945,343.44L159.486,342.704
C161.51,341.738,162.1,341.14,162.1,339.944
C162.1,338.357,160.958,337.363,159.164,337.363
C157.83,337.363,156.68,337.924,155.806,339.024
C155.185,339.875,154.863,340.634,154.472,342.244H153.805V336.563H154.472
C154.61,337.138,154.794,337.345,155.162,337.345
C155.346,337.345,155.599,337.276,156.105,337.115
C157.255,336.724,158.106,336.563,159.095,336.563
C162.499,336.563,164.8,338.518,164.8,341.416
C164.8,343.141,163.742,344.866,162.269,345.602L158.888,347.281
C157.025,348.201,156.5,348.776,156.5,349.88
C156.5,351.306,157.473,352.045,159.049,352.045
C160.084,352.045,161.05,351.654,161.878,350.892
C162.66,350.08,163.028,349.408,163.488,347.9Z"/>
<path d="M175.046,339.875
C174.126,338.748,173.413,338.378,172.424,338.378
C171.527,338.378,170.86,338.777,170.377,339.553
C169.963,340.281,169.779,341.031,169.687,342.6H175.483
C175.345,344.549,175,345.639,174.264,346.521
C173.505,347.418,172.447,347.875,171.182,347.875
C168.308,347.875,166.375,345.599,166.375,342.243
C166.375,338.885,168.261,336.677,171.113,336.677
C172.976,336.677,174.103,337.413,175.598,339.552L175.046,339.875Z
M169.572,343.5
C169.641,346.249,170.055,347.076,171.182,347.076
C171.825,347.076,172.262,346.739,172.447,346.085
C172.562,345.648,172.607,345.004,172.653,343.831V343.5Z"/>
<path d="M180.877,347.6H176.483V347.051
C177.495,346.89,177.7,346.66,177.7,345.694V338.932
C177.7,337.966,177.516,337.759,176.483,337.552V337H182.026V337.552
C181.175,337.667,180.9,338.012,180.9,338.863V345.004
C180.9,345.096,181.061,345.326,181.29,345.533
C181.796,346.062,182.348,346.338,182.877,346.338
C183.682,346.338,184.1,345.717,184.1,344.429V338.863
C184.1,338.012,183.794,337.644,182.992,337.552V337H188.397V337.552
C187.5,337.621,187.3,337.897,187.3,338.863V344.636
C187.3,346.614,186.069,347.879,184.165,347.879
C182.785,347.879,181.728,347.235,180.877,345.878Z"/>
<path d="M195.815,347.6H193.7V351.49H193.078
C191.675,349.512,190.755,348.477,189.26,347.212V346.6H190.5V339.139
C190.5,337.644,191.472,336.724,193.032,336.724
C194.573,336.724,195.493,337.414,196.436,339.3L195.861,339.553
C195.401,338.679,195.033,338.357,194.55,338.357
C193.906,338.357,193.7,338.748,193.7,339.668V346.6H195.815Z"/>
<path d="M205.646,339.875
C204.726,338.748,204.013,338.378,203.024,338.378
C202.127,338.378,201.46,338.777,200.977,339.553
C200.563,340.281,200.379,341.031,200.287,342.6H206.083
C205.945,344.549,205.6,345.639,204.864,346.521
C204.105,347.418,203.047,347.875,201.782,347.875
C198.907,347.875,196.975,345.599,196.975,342.243
C196.975,338.885,198.861,336.677,201.713,336.677
C203.576,336.677,204.703,337.413,206.198,339.552L205.646,339.875Z
M200.172,343.5
C200.241,346.249,200.655,347.076,201.782,347.076
C202.426,347.076,202.863,346.739,203.047,346.085
C203.162,345.648,203.208,345.004,203.253,343.831V343.5Z"/>
<path d="M211.577,347.6H207.183V347.051
C208.195,346.89,208.4,346.66,208.4,345.694V338.932
C208.4,337.966,208.216,337.759,207.183,337.552V337H212.726V337.552
C211.875,337.667,211.6,338.012,211.6,338.863V345.004
C211.6,345.096,211.761,345.326,211.99,345.533
C212.496,346.062,213.048,346.338,213.577,346.338
C214.382,346.338,214.8,345.717,214.8,344.429V338.863
C214.8,338.012,214.494,337.644,213.692,337.552V337H219.097V337.552
C218.2,337.621,218,337.897,218,338.863V344.636
C218,346.614,216.769,347.879,214.865,347.879
C213.485,347.879,212.428,347.235,211.577,345.878Z"/>
<path d="M228.876,339.507
C228.025,338.541,227.427,338.219,226.484,338.219
C224.483,338.219,223.2,340.22,223.2,343.348
C223.2,345.717,223.943,347.153,225.15,347.153
C225.518,347.153,225.863,346.974,226.001,346.729
C226.116,346.522,226.1,346.522,226.1,345.556
C226.123,344.429,226.542,343.9,227.404,343.9
C228.37,343.9,229,344.452,229,345.349
C229,346.775,227.445,347.879,225.403,347.879
C222.275,347.879,220,345.441,220,342.129
C220,338.956,222.059,336.678,224.897,336.678
C226.668,336.678,227.956,337.391,229.29,339.093Z"/>
<path d="M238.946,339.875
C238.026,338.748,237.313,338.378,236.324,338.378
C235.427,338.378,234.76,338.777,234.277,339.553
C233.863,340.281,233.679,341.031,233.587,342.6H239.383
C239.245,344.549,238.9,345.639,238.164,346.521
C237.405,347.418,236.347,347.875,235.082,347.875
C232.208,347.875,230.275,345.599,230.275,342.243
C230.275,338.885,232.161,336.677,235.013,336.677
C236.876,336.677,238.003,337.413,239.498,339.552L238.946,339.875Z
M233.472,343.5
C233.541,346.249,233.955,347.076,235.082,347.076
C235.726,347.076,236.163,346.739,236.347,346.085
C236.462,345.648,236.508,345.004,236.553,343.831V343.5Z"/>
<path d="M252.546,352.845H250.476L245.048,336.563H247.118Z"/>
<path d="M273.923,352.5H269.024V351.973
C270.657,351.858,271.002,351.697,271.002,350.961
C271.002,350.593,270.933,350.317,270.542,349.328L267.621,341.761
L264.447,349.443C264.01,350.478,263.918,350.754,263.918,351.099
C263.918,351.628,264.263,351.881,265.137,351.927
C265.252,351.927,265.551,351.95,265.896,351.973V352.5H258.168V351.973
C259.318,351.812,259.525,351.628,260.1,350.363L265.988,336.586H266.609
L271.853,350.087C272.405,351.513,272.727,351.812,273.923,351.973Z"/>
<path d="M283.646,339.875
C282.726,338.748,282.013,338.378,281.024,338.378
C280.127,338.378,279.46,338.777,278.977,339.553
C278.563,340.281,278.379,341.031,278.287,342.6H284.083
C283.945,344.549,283.6,345.639,282.864,346.521
C282.105,347.418,281.047,347.875,279.782,347.875
C276.907,347.875,274.975,345.599,274.975,342.243
C274.975,338.885,276.861,336.677,279.713,336.677
C281.576,336.677,282.703,337.413,284.198,339.552L283.646,339.875Z
M278.172,343.5
C278.241,346.249,278.655,347.076,279.782,347.076
C280.426,347.076,280.863,346.739,281.047,346.085
C281.162,345.648,281.208,345.004,281.253,343.831V343.5Z"/>
<path d="M289.608,347.6H285.267V347.051
C286.256,346.913,286.5,346.614,286.5,345.694V338.932
C286.5,337.989,286.272,337.736,285.267,337.552V337H291.385V337.552
C289.982,337.644,289.7,337.943,289.7,339.369V343.716
C289.7,344.912,290.347,345.901,291.109,345.901
C291.293,345.901,291.5,345.74,291.753,345.372
C292.19,344.751,292.535,344.576,293.133,344.576
C293.984,344.576,294.582,345.207,294.582,346.085
C294.582,347.12,293.8,347.876,292.719,347.876
C291.567,347.876,290.691,347.256,289.608,345.717Z"/>
<path d="M299.7,352.5H295.191V351.996
C296.249,351.789,296.5,351.582,296.5,350.662V336.701H296.732L298.549,337.989
C299.607,337.046,300.435,336.678,301.585,336.678
C304.644,336.678,306.8,339.07,306.8,342.497
C306.8,345.671,305.022,347.876,302.459,347.876
C301.373,347.876,300.537,347.486,299.7,346.591V352.5Z
M299.7,345.28
C300.08,346.269,300.526,346.676,301.263,346.676
C302.689,346.676,303.4,345.122,303.4,342.083
C303.4,338.909,302.711,337.501,301.24,337.501
C300.274,337.501,299.7,338.18,299.7,339.231Z"/>
<path d="M318.154,347.6H313.783V347.051
C314.795,346.89,315,346.66,315,345.694V334.171
C315,333.228,314.82,333.021,313.737,332.837V332.3H320.016V332.8
C318.613,332.868,318.2,333.321,318.2,334.838V338.081
C319.313,337,319.916,336.701,320.936,336.701
C323.511,336.701,325.399,339.093,325.399,342.497
C325.399,345.694,323.656,347.876,321.073,347.876
C319.707,347.876,318.872,347.348,318.154,346.016V347.6Z
M318.2,344.958
C318.2,345.119,318.416,345.487,318.705,345.786
C319.165,346.292,319.694,346.575,320.2,346.575
C321.396,346.575,322,345.193,322,342.175
C322,339.323,321.339,338.001,319.993,338.001
C319.225,338.001,318.549,338.517,318.2,339.369Z"/>
<path d="M330.9,352.5H326.468V351.996
C327.526,351.789,327.7,351.605,327.7,350.662V338.932
C327.7,337.966,327.514,337.759,326.468,337.552V337H332.011V337.552
C331.16,337.667,330.9,338.012,330.9,338.863V345.004
C330.9,345.095,331.054,345.325,331.275,345.532
C331.781,346.061,332.333,346.337,332.862,346.337
C333.667,346.337,334.1,345.717,334.1,344.428V338.863
C334.1,338.012,333.789,337.644,332.977,337.552V337H338.382V337.552
C337.554,337.621,337.3,337.966,337.3,338.932V344.635
C337.3,346.613,336.063,347.878,334.15,347.878
C332.937,347.878,332.09,347.418,330.9,346.084Z"/>
<path d="M343.908,347.6H339.567V347.051
C340.556,346.913,340.8,346.614,340.8,345.694V338.932
C340.8,337.989,340.572,337.736,339.567,337.552V337H345.685V337.552
C344.282,337.644,344,337.943,344,339.369V343.716
C344,344.912,344.647,345.901,345.409,345.901
C345.593,345.901,345.8,345.74,346.053,345.372
C346.49,344.751,346.835,344.576,347.433,344.576
C348.284,344.576,348.882,345.207,348.882,346.085
C348.882,347.12,348.1,347.876,347.019,347.876
C345.867,347.876,344.991,347.256,343.908,345.717Z"/>
<path d="M359.979,338.472L359.749,338.242
C359.68,338.173,359.611,338.15,359.496,338.15
C359.174,338.15,359,338.357,359,338.725V344.728
C359,346.66,357.257,347.879,354.459,347.879
C351.86,347.879,350.1,346.706,350.1,344.981
C350.1,344.038,350.656,343.463,351.607,343.463
C352.527,343.463,353.2,344.015,353.2,344.797
C353.2,345.119,353.052,345.418,352.757,345.786
C352.55,346.016,352.51,346.154,352.51,346.292
C352.51,346.775,353.141,347.053,353.93,347.053
C355.264,347.053,355.823,346.46,355.823,345.119V343.44
C353.109,342.612,351.991,342.152,351.147,341.577
C350.158,340.887,349.7,340.105,349.7,339.116
C349.7,337.713,350.77,336.678,352.228,336.678
C353.539,336.678,354.597,337.138,355.862,338.288
C356.115,337.115,356.621,336.678,357.748,336.678
C358.737,336.678,359.45,337.046,360.324,337.989L359.979,338.472Z
M355.8,339.3
C355.194,338.587,354.745,338.311,354.206,338.311
C353.516,338.311,353.1,338.932,353.1,339.852
C353.1,341.186,354.029,342.152,355.8,342.635Z"/>
<path d="M368.417,344.498V347.83H367.914
C367.776,347.487,367.638,347.37,367.362,347.37
C367.224,347.37,366.994,347.417,366.626,347.533
C365.867,347.786,365.338,347.875,364.832,347.875
C362.74,347.875,361.2,346.45,361.2,344.52
C361.2,343.002,362.149,341.944,364.487,340.955
C366.051,340.265,366.7,339.69,366.7,338.954
C366.7,338.057,366.008,337.5,364.97,337.5
C363.36,337.5,362.302,338.521,361.819,340.495H361.176V336.7H361.75
C362.003,337.183,362.141,337.344,362.348,337.344
C362.463,337.344,362.647,337.298,362.877,337.206
C363.498,336.93,364.717,336.677,365.361,336.677
C367.454,336.677,368.9,338.103,368.9,340.173
C368.9,341.806,368.004,342.795,365.729,343.761
C364.165,344.428,363.5,345.003,363.5,345.785
C363.5,346.544,364.153,347.075,365.039,347.075
C365.637,347.075,366.258,346.837,366.764,346.383
C367.247,345.923,367.5,345.509,367.845,344.497Z"/>
<path d="M378.846,339.875
C377.926,338.748,377.213,338.378,376.224,338.378
C375.327,338.378,374.66,338.777,374.177,339.553
C373.763,340.281,373.579,341.031,373.487,342.6H379.283
C379.145,344.549,378.8,345.639,378.064,346.521
C377.305,347.418,376.247,347.875,374.982,347.875
C372.108,347.875,370.176,345.599,370.176,342.243
C370.176,338.885,372.062,336.677,374.913,336.677
C376.776,336.677,377.903,337.413,379.398,339.552L378.846,339.875Z
M373.372,343.5
C373.441,346.249,373.855,347.076,374.982,347.076
C375.625,347.076,376.063,346.739,376.247,346.085
C376.362,345.648,376.407,345.004,376.453,343.831V343.5Z"/>
<path d="M23.2898,211.5H18.437V210.9
C18.8989,210.9,19.2908,210.57,20.4,209.317V198.415
C20.4,197.104,20.054,196.782,18.3679,196.575V196H23.5889V196.575
C21.8179,196.782,21.4,197.219,21.4,198.852V208.098L31.6848,195.586H32.3V209.133
C32.3,210.444,32.6038,210.743,34.1228,210.973V211.5H29.178V210.973
C30.8799,210.812,31.3,210.329,31.3,208.696V201.681Z"/>
<path d="M40.3728,206.876
C37.4519,206.876,35.2,204.462,35.2,201.336
C35.2,198.047,37.3738,195.678,40.3728,195.678
C43.3396,195.678,45.6,198.07,45.6,201.267
C45.6,204.487,43.3696,206.876,40.3728,206.876Z
M40.396,206.076
C41.73,206.076,42.2,204.834,42.2,201.129
C42.2,197.587,41.7322,196.478,40.373,196.478
C39.0161,196.478,38.6,197.628,38.6,200.922
C38.6,204.97,39.0039,206.076,40.396,206.076Z"/>
<path d="M54.0229,195.701
C55.0007,196.046,55.5469,196.138,57.0249,196.299L58.4507,196.46V196.989
C57.4387,197.034,57.2,197.333,57.2,198.323V206.599H52.5398V206.051
C53.6897,205.959,54,205.683,54,204.694V198.185
C53.2268,197.426,52.7358,197.173,52.0798,197.173
C51.137,197.173,50.8,197.633,50.8,198.806V206.6H46.4683V206.051
C47.4111,205.867,47.6,205.66,47.6,204.694V198.898
C47.6,196.874,48.748,195.678,50.6541,195.678
C51.8618,195.678,52.675,196.046,54.0229,197.196Z"/>
<path d="M63.7769,206.6H59.3831V206.051
C60.395,205.89,60.6,205.66,60.6,204.694V197.932
C60.6,196.966,60.416,196.759,59.3831,196.552V196H64.926V196.552
C64.0752,196.667,63.8,197.012,63.8,197.863V204.004
C63.8,204.096,63.9609,204.326,64.1899,204.533
C64.6958,205.062,65.2478,205.338,65.7769,205.338
C66.5818,205.338,67,204.717,67,203.429V197.863
C67,197.012,66.6938,196.644,65.8918,196.552V196H71.2966V196.552
C70.4,196.621,70.2,196.897,70.2,197.863V203.636
C70.2,205.614,68.9688,206.879,67.0649,206.879
C65.6851,206.879,64.6282,206.235,63.7771,204.878Z"/>
<path d="M83.4,203
C86.5208,203.022,87.3079,203.086,88.3247,203.475
C90.1875,204.188,91.2,205.591,91.2,207.362
C91.2,210.03,89.0146,211.5,85.1736,211.5H77.7678V210.973
C79.3777,210.835,79.7,210.467,79.7,208.857V198.691
C79.7,197.265,79.4009,196.805,78.3198,196.667
C78.251,196.667,78.021,196.621,77.7681,196.575V196H85.45V196.575
C83.6331,196.805,83.4,197.012,83.4,198.691V203Z
M83.4,209.938
C83.4,210.467,83.8,210.7,84.5757,210.7
C86.4846,210.7,87.2,209.7,87.2,207.247
C87.2,205.798,86.9375,204.924,86.3696,204.395
C85.8127,203.935,85.0466,203.8,83.4,203.8Z"/>
<path d="M96.3,211.5H91.8679V210.996
C92.9258,210.789,93.1,210.605,93.1,209.662V197.932
C93.1,196.966,92.9141,196.759,91.8679,196.552V196H97.4109V196.552
C96.5601,196.667,96.3,197.012,96.3,197.863V204.004
C96.3,204.095,96.4539,204.325,96.6748,204.532
C97.1807,205.061,97.7327,205.337,98.2617,205.337
C99.0667,205.337,99.5,204.717,99.5,203.428V197.863
C99.5,197.012,99.1887,196.644,98.3767,196.552V196H103.781V196.552
C102.954,196.621,102.7,196.966,102.7,197.932V203.635
C102.7,205.613,101.463,206.878,99.5498,206.878
C98.3369,206.878,97.49,206.418,96.3,205.084Z"/>
<path d="M109.308,206.6H104.967V206.051
C105.956,205.913,106.2,205.614,106.2,204.694V197.932
C106.2,196.989,105.972,196.736,104.967,196.552V196H111.085V196.552
C109.682,196.644,109.4,196.943,109.4,198.369V202.716
C109.4,203.912,110.047,204.901,110.809,204.901
C110.993,204.901,111.2,204.74,111.453,204.372
C111.89,203.751,112.235,203.576,112.833,203.576
C113.684,203.576,114.282,204.207,114.282,205.085
C114.282,206.12,113.5,206.876,112.419,206.876
C111.267,206.876,110.391,206.256,109.308,204.717Z"/>
<path d="M125.379,197.472L125.149,197.242
C125.08,197.173,125.011,197.15,124.896,197.15
C124.574,197.15,124.4,197.357,124.4,197.725V203.728
C124.4,205.66,122.657,206.879,119.859,206.879
C117.26,206.879,115.5,205.706,115.5,203.981
C115.5,203.038,116.056,202.463,117.007,202.463
C117.927,202.463,118.6,203.015,118.6,203.797
C118.6,204.119,118.452,204.418,118.157,204.786
C117.95,205.016,117.91,205.154,117.91,205.292
C117.91,205.775,118.541,206.053,119.33,206.053
C120.664,206.053,121.223,205.46,121.223,204.119V202.44
C118.509,201.612,117.391,201.152,116.547,200.577
C115.559,199.887,115.101,199.105,115.101,198.116
C115.101,196.713,116.17,195.678,117.628,195.678
C118.939,195.678,119.997,196.138,121.262,197.288
C121.515,196.115,122.021,195.678,123.148,195.678
C124.137,195.678,124.85,196.046,125.724,196.989L125.379,197.472Z
M121.2,198.3
C120.594,197.587,120.145,197.311,119.606,197.311
C118.916,197.311,118.5,197.932,118.5,198.852
C118.5,200.186,119.429,201.152,121.2,201.635Z"/>
<path d="M133.817,203.498V206.83H133.314
C133.176,206.487,133.038,206.37,132.762,206.37
C132.624,206.37,132.394,206.417,132.026,206.533
C131.268,206.786,130.739,206.875,130.232,206.875
C128.14,206.875,126.601,205.45,126.601,203.52
C126.601,202.002,127.55,200.944,129.887,199.955
C131.451,199.265,132.1,198.69,132.1,197.954
C132.1,197.057,131.408,196.5,130.37,196.5
C128.76,196.5,127.702,197.521,127.219,199.495H126.576V195.7H127.151
C127.404,196.183,127.542,196.344,127.749,196.344
C127.864,196.344,128.047,196.298,128.277,196.206
C128.898,195.93,130.117,195.677,130.761,195.677
C132.854,195.677,134.3,197.103,134.3,199.173
C134.3,200.806,133.404,201.795,131.129,202.761
C129.565,203.428,128.9,204.003,128.9,204.785
C128.9,205.544,129.553,206.075,130.439,206.075
C131.037,206.075,131.658,205.837,132.164,205.383
C132.647,204.923,132.9,204.509,133.245,203.497Z"/>
<path d="M144.146,198.875
C143.226,197.748,142.513,197.378,141.524,197.378
C140.627,197.378,139.96,197.777,139.477,198.553
C139.063,199.281,138.879,200.031,138.787,201.6H144.583
C144.445,203.549,144.1,204.639,143.364,205.521
C142.605,206.418,141.547,206.875,140.282,206.875
C137.407,206.875,135.475,204.599,135.475,201.243
C135.475,197.885,137.361,195.677,140.213,195.677
C142.076,195.677,143.203,196.413,144.698,198.552L144.146,198.875Z
M138.672,202.5
C138.741,205.249,139.155,206.076,140.282,206.076
C140.926,206.076,141.363,205.739,141.547,205.085
C141.662,204.648,141.708,204.004,141.753,202.831V202.5Z"/>
<path d="M287,229
C290.121,229.022,290.908,229.086,291.925,229.475
C293.787,230.188,294.799,231.591,294.799,233.362
C294.799,236.03,292.615,237.5,288.773,237.5H281.368V236.973
C282.978,236.835,283.3,236.467,283.3,234.857V224.691
C283.3,223.265,283.001,222.805,281.92,222.667
C281.851,222.667,281.621,222.621,281.368,222.575V222H289.05V222.575
C287.233,222.805,287,223.012,287,224.691V229Z
M287,235.938
C287,236.467,287.4,236.7,288.176,236.7
C290.084,236.7,290.799,235.7,290.799,233.247
C290.799,231.798,290.537,230.924,289.969,230.395
C289.413,229.935,288.646,229.8,287,229.8Z"/>
<path d="M300.108,232.6H295.767V232.051
C296.756,231.913,297,231.614,297,230.694V223.932
C297,222.989,296.772,222.736,295.767,222.552V222H301.885V222.552
C300.482,222.644,300.2,222.943,300.2,224.369V228.716
C300.2,229.912,300.847,230.901,301.609,230.901
C301.793,230.901,302,230.74,302.253,230.372
C302.69,229.751,303.035,229.576,303.633,229.576
C304.484,229.576,305.082,230.207,305.082,231.085
C305.082,232.12,304.3,232.876,303.219,232.876
C302.067,232.876,301.191,232.256,300.108,230.717Z"/>
<path d="M314.546,224.875
C313.626,223.748,312.913,223.378,311.924,223.378
C311.027,223.378,310.36,223.777,309.877,224.553
C309.463,225.281,309.279,226.031,309.187,227.6H314.983
C314.845,229.549,314.5,230.639,313.764,231.521
C313.005,232.418,311.947,232.875,310.682,232.875
C307.808,232.875,305.875,230.599,305.875,227.243
C305.875,223.885,307.761,221.677,310.613,221.677
C312.476,221.677,313.603,222.413,315.098,224.552L314.546,224.875Z
M309.072,228.5
C309.141,231.249,309.555,232.076,310.682,232.076
C311.325,232.076,311.762,231.739,311.947,231.085
C312.062,230.648,312.107,230.004,312.153,228.831V228.5Z"/>
<path d="M320.354,232.6H315.983V232.051
C316.995,231.89,317.2,231.66,317.2,230.694V219.171
C317.2,218.228,317.02,218.021,315.937,217.837V217.3H322.216V217.8
C320.813,217.868,320.4,218.321,320.4,219.838V223.081
C321.512,222,322.115,221.701,323.135,221.701
C325.711,221.701,327.599,224.093,327.599,227.497
C327.599,230.694,325.855,232.876,323.273,232.876
C321.906,232.876,321.072,232.348,320.354,231.016V232.6Z
M320.4,229.958
C320.4,230.119,320.616,230.487,320.905,230.786
C321.365,231.292,321.894,231.575,322.4,231.575
C323.595,231.575,324.199,230.193,324.199,227.175
C324.199,224.323,323.539,223.001,322.193,223.001
C321.425,223.001,320.749,223.517,320.4,224.369Z"/>
<path d="M334.073,232.876
C331.152,232.876,328.9,230.462,328.9,227.336
C328.9,224.047,331.074,221.678,334.073,221.678
C337.04,221.678,339.3,224.07,339.3,227.267
C339.3,230.487,337.07,232.876,334.073,232.876Z
M334.096,232.076
C335.43,232.076,335.9,230.834,335.9,227.129
C335.9,223.587,335.432,222.478,334.073,222.478
C332.716,222.478,332.3,223.628,332.3,226.922
C332.3,230.97,332.704,232.076,334.096,232.076Z"/>
<path d="M347.617,229.498V232.83H347.114
C346.976,232.487,346.838,232.37,346.562,232.37
C346.424,232.37,346.194,232.417,345.826,232.533
C345.068,232.786,344.539,232.875,344.032,232.875
C341.94,232.875,340.401,231.45,340.401,229.52
C340.401,228.002,341.35,226.944,343.688,225.955
C345.251,225.265,345.9,224.69,345.9,223.954
C345.9,223.057,345.208,222.5,344.17,222.5
C342.561,222.5,341.502,223.521,341.02,225.495H340.376V221.7H340.951
C341.204,222.183,341.342,222.344,341.549,222.344
C341.664,222.344,341.847,222.298,342.077,222.206
C342.698,221.93,343.917,221.677,344.561,221.677
C346.654,221.677,348.1,223.103,348.1,225.173
C348.1,226.806,347.204,227.795,344.929,228.761
C343.365,229.428,342.7,230.003,342.7,230.785
C342.7,231.544,343.353,232.075,344.239,232.075
C344.837,232.075,345.458,231.837,345.964,231.383
C346.447,230.923,346.7,230.509,347.045,229.497Z"/>
<path d="M353.5,232.6H349.068V232.051
C350.08,231.844,350.3,231.637,350.3,230.694V223.932
C350.3,222.989,350.137,222.805,349.068,222.552V222H354.565V222.552
C353.76,222.667,353.5,222.989,353.5,223.863V232.6Z
M351.874,237.845
C350.885,237.845,350.08,237.062,350.08,236.122
C350.08,235.087,350.839,234.245,351.851,234.245
C352.863,234.245,353.645,235.04,353.645,236.099
C353.645,237.088,352.863,237.845,351.874,237.845Z"/>
<path d="M362.115,232.6H360V236.49H359.378
C357.975,234.512,357.055,233.477,355.56,232.212V231.6H356.8V224.139
C356.8,222.644,357.772,221.724,359.332,221.724
C360.873,221.724,361.793,222.414,362.736,224.3L362.161,224.553
C361.701,223.679,361.333,223.357,360.85,223.357
C360.206,223.357,360,223.748,360,224.668V231.6H362.115Z"/>
<path d="M367.6,232.6H363.168V232.051
C364.18,231.844,364.4,231.637,364.4,230.694V223.932
C364.4,222.989,364.237,222.805,363.168,222.552V222H368.665V222.552
C367.86,222.667,367.6,222.989,367.6,223.863V232.6Z
M365.974,237.845
C364.985,237.845,364.18,237.062,364.18,236.122
C364.18,235.087,364.939,234.245,365.951,234.245
C366.963,234.245,367.745,235.04,367.745,236.099
C367.745,237.088,366.963,237.845,365.974,237.845Z"/>
<path d="M374.973,232.876
C372.052,232.876,369.8,230.462,369.8,227.336
C369.8,224.047,371.974,221.678,374.973,221.678
C377.94,221.678,380.2,224.07,380.2,227.267
C380.2,230.487,377.97,232.876,374.973,232.876Z
M374.996,232.076
C376.33,232.076,376.8,230.834,376.8,227.129
C376.8,223.587,376.332,222.478,374.973,222.478
C373.616,222.478,373.2,223.628,373.2,226.922
C373.2,230.97,373.604,232.076,374.996,232.076Z"/>
<path d="M385.577,232.6H381.183V232.051
C382.195,231.89,382.4,231.66,382.4,230.694V223.932
C382.4,222.966,382.216,222.759,381.183,222.552V222H386.726V222.552
C385.875,222.667,385.6,223.012,385.6,223.863V230.004
C385.6,230.096,385.761,230.326,385.99,230.533
C386.496,231.062,387.048,231.338,387.577,231.338
C388.382,231.338,388.8,230.717,388.8,229.429V223.863
C388.8,223.012,388.494,222.644,387.692,222.552V222H393.097V222.552
C392.2,222.621,392,222.897,392,223.863V229.636
C392,231.614,390.769,232.879,388.865,232.879
C387.485,232.879,386.428,232.235,385.577,230.878Z"/>
<path d="M404.279,223.472L404.049,223.242
C403.98,223.173,403.911,223.15,403.796,223.15
C403.474,223.15,403.3,223.357,403.3,223.725V229.728
C403.3,231.66,401.557,232.879,398.759,232.879
C396.16,232.879,394.4,231.706,394.4,229.981
C394.4,229.038,394.956,228.463,395.907,228.463
C396.827,228.463,397.5,229.015,397.5,229.797
C397.5,230.119,397.352,230.418,397.057,230.786
C396.85,231.016,396.81,231.154,396.81,231.292
C396.81,231.775,397.441,232.053,398.23,232.053
C399.564,232.053,400.123,231.46,400.123,230.119V228.44
C397.409,227.612,396.291,227.152,395.447,226.577
C394.458,225.887,394,225.105,394,224.116
C394,222.713,395.07,221.678,396.528,221.678
C397.839,221.678,398.897,222.138,400.162,223.288
C400.415,222.115,400.921,221.678,402.048,221.678
C403.037,221.678,403.75,222.046,404.624,222.989L404.279,223.472Z
M400.1,224.3
C399.494,223.587,399.045,223.311,398.506,223.311
C397.816,223.311,397.4,223.932,397.4,224.852
C397.4,226.186,398.329,227.152,400.1,227.635Z"/>
<path d="M409.6,237.5H405.268V236.996
C406.073,236.927,406.4,236.513,406.4,235.662V223.932
C406.4,223.081,406.023,222.621,405.268,222.552V222H410.765V222.6
C410.006,222.622,409.6,223.044,409.6,223.932Z"/>
<path d="M421.954,232.6H417.583V232.051
C418.595,231.89,418.8,231.66,418.8,230.694V219.171
C418.8,218.228,418.62,218.021,417.537,217.837V217.3H423.816V217.8
C422.413,217.868,422,218.321,422,219.838V223.081
C423.113,222,423.716,221.701,424.736,221.701
C427.312,221.701,429.199,224.093,429.199,227.497
C429.199,230.694,427.456,232.876,424.874,232.876
C423.507,232.876,422.672,232.348,421.954,231.016V232.6Z
M422,229.958
C422,230.119,422.216,230.487,422.505,230.786
C422.965,231.292,423.493,231.575,424,231.575
C425.195,231.575,425.799,230.193,425.799,227.175
C425.799,224.323,425.138,223.001,423.792,223.001
C423.025,223.001,422.349,223.517,422,224.369Z"/>
<path d="M434.7,237.5H430.268V236.996
C431.326,236.789,431.5,236.605,431.5,235.662V223.932
C431.5,222.966,431.314,222.759,430.268,222.552V222H435.811V222.552
C434.96,222.667,434.7,223.012,434.7,223.863V230.004
C434.7,230.095,434.854,230.325,435.075,230.532
C435.581,231.061,436.133,231.337,436.662,231.337
C437.467,231.337,437.9,230.717,437.9,229.428V223.863
C437.9,223.012,437.589,222.644,436.777,222.552V222H442.182V222.552
C441.354,222.621,441.1,222.966,441.1,223.932V229.635
C441.1,231.613,439.863,232.878,437.95,232.878
C436.737,232.878,435.89,232.418,434.7,231.084Z"/>
<path d="M447.708,232.6H443.367V232.051
C444.356,231.913,444.6,231.614,444.6,230.694V223.932
C444.6,222.989,444.372,222.736,443.367,222.552V222H449.485V222.552
C448.082,222.644,447.8,222.943,447.8,224.369V228.716
C447.8,229.912,448.447,230.901,449.209,230.901
C449.393,230.901,449.6,230.74,449.853,230.372
C450.29,229.751,450.635,229.576,451.233,229.576
C452.083,229.576,452.682,230.207,452.682,231.085
C452.682,232.12,451.9,232.876,450.819,232.876
C449.667,232.876,448.791,232.256,447.708,230.717Z"/>
<path d="M463.779,223.472L463.549,223.242
C463.48,223.173,463.411,223.15,463.296,223.15
C462.974,223.15,462.8,223.357,462.8,223.725V229.728
C462.8,231.66,461.057,232.879,458.259,232.879
C455.66,232.879,453.9,231.706,453.9,229.981
C453.9,229.038,454.456,228.463,455.407,228.463
C456.327,228.463,457,229.015,457,229.797
C457,230.119,456.852,230.418,456.557,230.786
C456.35,231.016,456.31,231.154,456.31,231.292
C456.31,231.775,456.941,232.053,457.73,232.053
C459.064,232.053,459.623,231.46,459.623,230.119V228.44
C456.909,227.612,455.791,227.152,454.947,226.577
C453.958,225.887,453.5,225.105,453.5,224.116
C453.5,222.713,454.57,221.678,456.028,221.678
C457.339,221.678,458.397,222.138,459.662,223.288
C459.915,222.115,460.421,221.678,461.548,221.678
C462.537,221.678,463.25,222.046,464.124,222.989L463.779,223.472Z
M459.6,224.3
C458.994,223.587,458.545,223.311,458.006,223.311
C457.316,223.311,456.9,223.932,456.9,224.852
C456.9,226.186,457.829,227.152,459.6,227.635Z"/>
<path d="M472.217,229.498V232.83H471.714
C471.576,232.487,471.438,232.37,471.162,232.37
C471.024,232.37,470.794,232.417,470.426,232.533
C469.667,232.786,469.138,232.875,468.632,232.875
C466.54,232.875,465,231.45,465,229.52
C465,228.002,465.949,226.944,468.287,225.955
C469.851,225.265,470.5,224.69,470.5,223.954
C470.5,223.057,469.808,222.5,468.77,222.5
C467.16,222.5,466.102,223.521,465.619,225.495H464.976V221.7H465.551
C465.803,222.183,465.941,222.344,466.148,222.344
C466.263,222.344,466.447,222.298,466.677,222.206
C467.298,221.93,468.517,221.677,469.161,221.677
C471.254,221.677,472.7,223.103,472.7,225.173
C472.7,226.806,471.804,227.795,469.529,228.761
C467.965,229.428,467.3,230.003,467.3,230.785
C467.3,231.544,467.953,232.075,468.839,232.075
C469.437,232.075,470.058,231.837,470.564,231.383
C471.047,230.923,471.3,230.509,471.645,229.497Z"/>
<path d="M482.546,224.875
C481.626,223.748,480.913,223.378,479.924,223.378
C479.027,223.378,478.36,223.777,477.877,224.553
C477.463,225.281,477.279,226.031,477.187,227.6H482.983
C482.845,229.549,482.5,230.639,481.764,231.521
C481.005,232.418,479.947,232.875,478.682,232.875
C475.808,232.875,473.875,230.599,473.875,227.243
C473.875,223.885,475.761,221.677,478.613,221.677
C480.476,221.677,481.603,222.413,483.098,224.552L482.546,224.875Z
M477.072,228.5
C477.141,231.249,477.555,232.076,478.682,232.076
C479.325,232.076,479.762,231.739,479.947,231.085
C480.062,230.648,480.107,230.004,480.153,228.831V228.5Z"/>
<path d="M383.29,164.5H378.437V163.9
C378.899,163.9,379.291,163.57,380.4,162.317V151.415
C380.4,150.104,380.054,149.782,378.368,149.575V149H383.589V149.575
C381.818,149.782,381.4,150.219,381.4,151.852V161.098L391.685,148.586H392.3
V162.133C392.3,163.444,392.604,163.743,394.123,163.973V164.5H389.178V163.973
C390.88,163.812,391.3,163.329,391.3,161.696V154.681Z"/>
<path d="M400.373,159.876
C397.452,159.876,395.2,157.462,395.2,154.336
C395.2,151.047,397.374,148.678,400.373,148.678
C403.34,148.678,405.6,151.07,405.6,154.267
C405.6,157.487,403.37,159.876,400.373,159.876Z
M400.396,159.076
C401.73,159.076,402.2,157.834,402.2,154.129
C402.2,150.587,401.732,149.478,400.373,149.478
C399.016,149.478,398.6,150.628,398.6,153.922
C398.6,157.97,399.004,159.076,400.396,159.076Z"/>
<path d="M414.023,148.701
C415.001,149.046,415.547,149.138,417.025,149.299L418.451,149.46V149.989
C417.439,150.034,417.2,150.333,417.2,151.323V159.599H412.54V159.051
C413.69,158.959,414,158.683,414,157.694V151.185
C413.227,150.426,412.736,150.173,412.08,150.173
C411.137,150.173,410.8,150.633,410.8,151.806V159.6H406.468V159.051
C407.411,158.867,407.6,158.66,407.6,157.694V151.898
C407.6,149.874,408.748,148.678,410.654,148.678
C411.862,148.678,412.675,149.046,414.023,150.196Z"/>
<path d="M423.777,159.6H419.383V159.051
C420.395,158.89,420.6,158.66,420.6,157.694V150.932
C420.6,149.966,420.416,149.759,419.383,149.552V149H424.926V149.552
C424.075,149.667,423.8,150.012,423.8,150.863V157.004
C423.8,157.096,423.961,157.326,424.19,157.533
C424.696,158.062,425.248,158.338,425.777,158.338
C426.582,158.338,427,157.717,427,156.429V150.863
C427,150.012,426.694,149.644,425.892,149.552V149H431.297V149.552
C430.4,149.621,430.2,149.897,430.2,150.863V156.636
C430.2,158.614,428.969,159.879,427.065,159.879
C425.685,159.879,424.628,159.235,423.777,157.878Z"/>
<path d="M443.4,156
C446.521,156.022,447.308,156.086,448.325,156.475
C450.188,157.188,451.199,158.591,451.199,160.362
C451.199,163.03,449.015,164.5,445.174,164.5H437.768V163.973
C439.378,163.835,439.7,163.467,439.7,161.857V151.691
C439.7,150.265,439.401,149.805,438.32,149.667
C438.251,149.667,438.021,149.621,437.768,149.575V149H445.45V149.575
C443.633,149.805,443.4,150.012,443.4,151.691V156Z
M443.4,162.938
C443.4,163.467,443.8,163.7,444.576,163.7
C446.485,163.7,447.199,162.7,447.199,160.247
C447.199,158.798,446.938,157.924,446.37,157.395
C445.813,156.935,445.047,156.8,443.4,156.8Z"/>
<path d="M456.3,164.5H451.868V163.996
C452.926,163.789,453.1,163.605,453.1,162.662V150.932
C453.1,149.966,452.914,149.759,451.868,149.552V149H457.411V149.552
C456.56,149.667,456.3,150.012,456.3,150.863V157.004
C456.3,157.095,456.454,157.325,456.675,157.532
C457.181,158.061,457.733,158.337,458.262,158.337
C459.067,158.337,459.5,157.717,459.5,156.428V150.863
C459.5,150.012,459.189,149.644,458.377,149.552V149H463.781V149.552
C462.954,149.621,462.7,149.966,462.7,150.932V156.635
C462.7,158.613,461.463,159.878,459.55,159.878
C458.337,159.878,457.49,159.418,456.3,158.084Z"/>
<path d="M469.308,159.6H464.967V159.051
C465.956,158.913,466.2,158.614,466.2,157.694V150.932
C466.2,149.989,465.972,149.736,464.967,149.552V149H471.085V149.552
C469.682,149.644,469.4,149.943,469.4,151.369V155.716
C469.4,156.912,470.047,157.901,470.809,157.901
C470.993,157.901,471.2,157.74,471.453,157.372
C471.89,156.751,472.235,156.576,472.833,156.576
C473.684,156.576,474.282,157.207,474.282,158.085
C474.282,159.12,473.5,159.876,472.419,159.876
C471.267,159.876,470.391,159.256,469.308,157.717Z"/>
<path d="M485.379,150.472L485.149,150.242
C485.08,150.173,485.011,150.15,484.896,150.15
C484.574,150.15,484.4,150.357,484.4,150.725V156.728
C484.4,158.66,482.657,159.879,479.859,159.879
C477.26,159.879,475.5,158.706,475.5,156.981
C475.5,156.038,476.056,155.463,477.007,155.463
C477.927,155.463,478.6,156.015,478.6,156.797
C478.6,157.119,478.452,157.418,478.157,157.786
C477.95,158.016,477.91,158.154,477.91,158.292
C477.91,158.775,478.541,159.053,479.33,159.053
C480.664,159.053,481.223,158.46,481.223,157.119V155.44
C478.509,154.612,477.391,154.152,476.547,153.577
C475.559,152.887,475.101,152.105,475.101,151.116
C475.101,149.713,476.17,148.678,477.628,148.678
C478.939,148.678,479.997,149.138,481.262,150.288
C481.515,149.115,482.021,148.678,483.148,148.678
C484.137,148.678,484.85,149.046,485.724,149.989L485.379,150.472Z
M481.2,151.3
C480.594,150.587,480.145,150.311,479.606,150.311
C478.916,150.311,478.5,150.932,478.5,151.852
C478.5,153.186,479.429,154.152,481.2,154.635Z"/>
<path d="M493.817,156.498V159.83H493.314
C493.176,159.487,493.038,159.37,492.762,159.37
C492.624,159.37,492.394,159.417,492.026,159.533
C491.268,159.786,490.739,159.875,490.232,159.875
C488.14,159.875,486.601,158.45,486.601,156.52
C486.601,155.002,487.55,153.944,489.887,152.955
C491.451,152.265,492.1,151.69,492.1,150.954
C492.1,150.057,491.408,149.5,490.37,149.5
C488.76,149.5,487.702,150.521,487.219,152.495H486.576V148.7H487.151
C487.404,149.183,487.542,149.344,487.749,149.344
C487.864,149.344,488.047,149.298,488.277,149.206
C488.898,148.93,490.117,148.677,490.761,148.677
C492.854,148.677,494.3,150.103,494.3,152.173
C494.3,153.806,493.404,154.795,491.129,155.761
C489.565,156.428,488.9,157.003,488.9,157.785
C488.9,158.544,489.553,159.075,490.439,159.075
C491.037,159.075,491.658,158.837,492.164,158.383
C492.647,157.923,492.9,157.509,493.245,156.497Z"/>
<path d="M504.146,151.875
C503.226,150.748,502.513,150.378,501.524,150.378
C500.627,150.378,499.96,150.777,499.477,151.553
C499.063,152.281,498.879,153.031,498.787,154.6H504.583
C504.445,156.549,504.1,157.639,503.364,158.521
C502.605,159.418,501.547,159.875,500.282,159.875
C497.407,159.875,495.475,157.599,495.475,154.243
C495.475,150.885,497.361,148.677,500.213,148.677
C502.076,148.677,503.203,149.413,504.698,151.552L504.146,151.875Z
M498.672,155.5
C498.741,158.249,499.155,159.076,500.282,159.076
C500.926,159.076,501.363,158.739,501.547,158.085
C501.662,157.648,501.708,157.004,501.753,155.831V155.5Z"/>
<path d="M21.8469,76.6H21.7551
C20.8582,76.6,20.4902,77.0786,19.3403,79.7717L14.2114,91.8215H13.5676L8.46167,79.2656
C7.58789,77.1267,7.31177,76.7817,6.20776,76.5747V76H10.8767V76.5747
C9.51978,76.6665,8.99072,76.9197,8.99072,77.5176
C8.99072,77.8164,9.17456,78.3914,9.65771,79.6335L10.0027,80.5H15.1775
C15.9595,78.7236,16.2354,77.9036,16.2354,77.4026
C16.2354,76.9197,15.9365,76.6897,15.1316,76.6438
C15.0166,76.6438,14.7178,76.6208,14.3958,76.575V76H21.8477L21.8469,76.6Z
M10.3469,81.4L12.5088,87.0168L14.8318,81.4Z"/>
<path d="M27.6079,86.6H23.2671V86.051
C24.2559,85.9131,24.5,85.6143,24.5,84.6941V77.9321
C24.5,76.9893,24.2722,76.7363,23.2671,76.5522V76.0005H29.385V76.5522
C27.9822,76.644,27.7,76.9431,27.7,78.3691V82.7161
C27.7,83.9119,28.3472,84.9009,29.1091,84.9009
C29.293,84.9009,29.5,84.74,29.7529,84.3721
C30.1897,83.7512,30.5349,83.5762,31.1328,83.5762
C31.9836,83.5762,32.5818,84.207,32.5818,85.085
C32.5818,86.1199,31.8,86.8757,30.719,86.8757
C29.5671,86.8757,28.6912,86.2559,27.6082,84.7168Z"/>
<path d="M39.8149,86.6H37.7V90.4897H37.0781
C35.6753,88.512,34.7551,87.4768,33.2603,86.2119V85.6H34.5V78.1392
C34.5,76.6443,35.4722,75.7244,37.0322,75.7244
C38.573,75.7244,39.4932,76.4143,40.436,78.3L39.8611,78.5532
C39.4011,77.6794,39.0332,77.3574,38.5503,77.3574
C37.9065,77.3574,37.7,77.7483,37.7,78.6682V85.6H39.8154Z"/>
<path d="M45.3,86.6H40.8679V86.051
C41.8799,85.8442,42.1,85.6372,42.1,84.6941V77.9321
C42.1,76.9893,41.937,76.8052,40.8679,76.5522V76.0005H46.3647V76.5522
C45.5598,76.6672,45.3,76.989,45.3,77.863V86.6Z
M43.6738,91.845
C42.6851,91.845,41.8799,91.062,41.8799,90.1221
C41.8799,89.0872,42.6387,88.2451,43.6509,88.2451
C44.6628,88.2451,45.4448,89.04,45.4448,90.0989
C45.4448,91.0876,44.6628,91.8447,43.6738,91.8447Z"/>
<path d="M56.376,78.5068
C55.5251,77.541,54.927,77.219,53.9841,77.219
C51.9832,77.219,50.7,79.22,50.7,82.3479
C50.7,84.7168,51.4431,86.1528,52.6501,86.1528
C53.0181,86.1528,53.363,85.9739,53.501,85.729
C53.616,85.5222,53.6,85.5222,53.6,84.5562
C53.6228,83.4292,54.0417,82.9,54.9038,82.9
C55.8696,82.9,56.5,83.4521,56.5,84.3494
C56.5,85.7751,54.9448,86.8792,52.9028,86.8792
C49.7749,86.8792,47.5,84.4412,47.5,81.1294
C47.5,77.9556,49.5588,75.6785,52.397,75.6785
C54.168,75.6785,55.4558,76.3914,56.7898,78.0933Z"/>
<path d="M61.8,91.5H57.468V90.9958
C58.2729,90.927,58.6,90.5129,58.6,89.6619V77.9319
C58.6,77.0811,58.2229,76.6211,57.468,76.552V76.0H62.9648V76.6
C62.2061,76.6221,61.8,77.0439,61.8,77.9319Z"/>
<path d="M72.7458,78.8748
C71.8259,77.7478,71.113,77.3779,70.124,77.3779
C69.2271,77.3779,68.5601,77.7769,68.0771,78.5527
C67.6633,79.2805,67.4792,80.0305,67.3872,81.6H73.1831
C73.0452,83.5486,72.7,84.6394,71.9641,85.5215
C71.2053,86.4185,70.1472,86.8752,68.8823,86.8752
C66.0076,86.8752,64.0754,84.6,64.0754,81.2434
C64.0754,77.8855,65.9614,75.6775,68.8132,75.6775
C70.676,75.6775,71.8032,76.4133,73.2981,78.5522L72.7458,78.8748Z
M67.272,82.5
C67.3408,85.2485,67.7549,86.0757,68.8818,86.0757
C69.5256,86.0757,69.9626,85.7388,70.1467,85.0847
C70.2617,84.6479,70.3076,84.0039,70.3535,82.8308V82.5Z"/>
<path d="M92.2898,91.5H87.437V90.9
C87.8989,90.9,88.2908,90.5701,89.4,89.3171V78.4153
C89.4,77.1045,89.054,76.7825,87.3679,76.5754V76.0005H92.5889V76.5754
C90.8179,76.7822,90.4,77.2192,90.4,78.8523V88.0981L100.685,75.5862H101.3V89.1331
C101.3,90.4438,101.604,90.7429,103.123,90.9729V91.5H98.178V90.9729
C99.8799,90.812,100.3,90.3291,100.3,88.696V81.6812Z"/>
<path d="M109.373,86.876
C106.452,86.876,104.2,84.4622,104.2,81.3362
C104.2,78.0474,106.374,75.6782,109.373,75.6782
C112.34,75.6782,114.6,78.0701,114.6,81.2671
C114.6,84.4871,112.37,86.876,109.373,86.876Z
M109.396,86.0759
C110.73,86.0759,111.2,84.834,111.2,81.1292
C111.2,77.5872,110.732,76.4783,109.373,76.4783
C108.016,76.4783,107.6,77.6282,107.6,80.9221
C107.6,84.97,108.004,86.0759,109.396,86.0759Z"/>
<path d="M123.023,75.7009
C124.001,76.0459,124.547,76.1377,126.025,76.2988L127.451,76.4597V76.9885
C126.439,77.0344,126.2,77.3335,126.2,78.3225V86.6H121.54V86.0505
C122.69,85.9587,123,85.6826,123,84.6936V78.1848
C122.227,77.426,121.736,77.1729,121.08,77.1729
C120.137,77.1729,119.8,77.6328,119.8,78.8057V86.6H115.468V86.0508
C116.411,85.8669,116.6,85.6599,116.6,84.6938V78.8979
C116.6,76.874,117.748,75.678,119.654,75.678
C120.862,75.678,121.675,76.0459,123.023,77.1958Z"/>
<path d="M132.777,86.6H128.383V86.051
C129.395,85.8901,129.6,85.6602,129.6,84.6941V77.9321
C129.6,76.9663,129.416,76.7593,128.383,76.5522V76.0005H133.926V76.5522
C133.075,76.6672,132.8,77.0122,132.8,77.863V84.0039
C132.8,84.0957,132.961,84.3257,133.19,84.5327
C133.696,85.0615,134.248,85.3376,134.777,85.3376
C135.582,85.3376,136,84.7168,136,83.4287V77.8628
C136,77.012,135.694,76.6438,134.892,76.552V76.0H140.297V76.552
C139.4,76.6208,139.2,76.897,139.2,77.8628V83.6357
C139.2,85.6135,137.969,86.8787,136.065,86.8787
C134.685,86.8787,133.628,86.2349,132.777,84.8777Z"/>
<path d="M184.123,91.5H179.224V90.9729
C180.857,90.8579,181.202,90.697,181.202,89.9609
C181.202,89.593,181.133,89.3171,180.742,88.3281L177.821,80.7612L174.647,88.4431
C174.21,89.478,174.118,89.7539,174.118,90.0989
C174.118,90.6277,174.463,90.8809,175.337,90.9268
C175.452,90.9268,175.751,90.9497,176.096,90.9727V91.5H168.368V90.9727
C169.518,90.8118,169.725,90.6277,170.3,89.3628L176.188,75.5859H176.809L182.053,89.0869
C182.604,90.5127,182.927,90.8118,184.123,90.9729Z"/>
<path d="M193.846,78.8748
C192.926,77.7478,192.213,77.3779,191.224,77.3779
C190.327,77.3779,189.66,77.7769,189.177,78.5527
C188.763,79.2805,188.579,80.0305,188.487,81.6H194.283
C194.145,83.5486,193.8,84.6394,193.064,85.5215
C192.305,86.4185,191.247,86.8752,189.982,86.8752
C187.108,86.8752,185.176,84.6,185.176,81.2434
C185.176,77.8855,187.062,75.6775,189.913,75.6775
C191.776,75.6775,192.903,76.4133,194.398,78.5522L193.846,78.8748Z
M188.372,82.5
C188.441,85.2485,188.855,86.0757,189.982,86.0757
C190.625,86.0757,191.063,85.7388,191.247,85.0847
C191.362,84.6479,191.407,84.0039,191.453,82.8308V82.5Z"/>
<path d="M199.808,86.6H195.467V86.051
C196.456,85.9131,196.7,85.6143,196.7,84.6941V77.9321
C196.7,76.9893,196.472,76.7363,195.467,76.5522V76.0005H201.585V76.5522
C200.182,76.644,199.9,76.9431,199.9,78.3691V82.7161
C199.9,83.9119,200.547,84.9009,201.309,84.9009
C201.493,84.9009,201.7,84.74,201.953,84.3721
C202.39,83.7512,202.735,83.5762,203.333,83.5762
C204.184,83.5762,204.782,84.207,204.782,85.085
C204.782,86.1199,204,86.8757,202.919,86.8757
C201.767,86.8757,200.891,86.2559,199.808,84.7168Z"/>
<path d="M209.9,91.5H205.391V90.9958
C206.449,90.7891,206.7,90.582,206.7,89.6619V75.7009H206.932L208.749,76.9888
C209.807,76.0459,210.635,75.678,211.785,75.678
C214.844,75.678,217,78.0698,217,81.4968
C217,84.6707,215.222,86.8757,212.659,86.8757
C211.573,86.8757,210.737,86.4858,209.9,85.5908V91.5Z
M209.9,84.2798
C210.28,85.2686,210.726,85.6758,211.463,85.6758
C212.889,85.6758,213.6,84.1218,213.6,81.083
C213.6,77.9092,212.911,76.5012,211.44,76.5012
C210.474,76.5012,209.9,77.1802,209.9,78.2312Z"/>
<path d="M255,83
C258.121,83.0217,258.908,83.0857,259.925,83.4746
C261.787,84.1875,262.799,85.5906,262.799,87.3616
C262.799,90.0295,260.615,91.5,256.773,91.5H249.368V90.9727
C250.978,90.8347,251.3,90.4668,251.3,88.8567V78.6909
C251.3,77.2651,251.001,76.8049,249.92,76.667
C249.851,76.667,249.621,76.6211,249.368,76.5752V76.0H257.05V76.5752
C255.233,76.8052,255,77.012,255,78.6912V83Z
M255,89.938
C255,90.4668,255.4,90.7,256.176,90.7
C258.084,90.7,258.799,89.7,258.799,87.2471
C258.799,85.7981,258.537,84.9241,257.969,84.3953
C257.413,83.9353,256.646,83.8,255,83.8Z"/>
<path d="M268.108,86.6H263.767V86.051
C264.756,85.9131,265,85.6143,265,84.6941V77.9321
C265,76.9893,264.772,76.7363,263.767,76.5522V76.0005H269.885V76.5522
C268.482,76.644,268.2,76.9431,268.2,78.3691V82.7161
C268.2,83.9119,268.847,84.9009,269.609,84.9009
C269.793,84.9009,270,84.74,270.253,84.3721
C270.69,83.7512,271.035,83.5762,271.633,83.5762
C272.484,83.5762,273.082,84.207,273.082,85.085
C273.082,86.1199,272.3,86.8757,271.219,86.8757
C270.067,86.8757,269.191,86.2559,268.108,84.7168Z"/>
<path d="M282.546,78.8748
C281.626,77.7478,280.913,77.3779,279.924,77.3779
C279.027,77.3779,278.36,77.7769,277.877,78.5527
C277.463,79.2805,277.279,80.0305,277.187,81.6H282.983
C282.845,83.5486,282.5,84.6394,281.764,85.5215
C281.005,86.4185,279.947,86.8752,278.682,86.8752
C275.808,86.8752,273.875,84.6,273.875,81.2434
C273.875,77.8855,275.761,75.6775,278.613,75.6775
C280.476,75.6775,281.603,76.4133,283.098,78.5522L282.546,78.8748Z
M277.072,82.5
C277.141,85.2485,277.555,86.0757,278.682,86.0757
C279.325,86.0757,279.762,85.7388,279.947,85.0847
C280.062,84.6479,280.107,84.0039,280.153,82.8308V82.5Z"/>
<path d="M288.354,86.6H283.983V86.051
C284.995,85.8901,285.2,85.6602,285.2,84.6941V73.1711
C285.2,72.2283,285.02,72.0212,283.937,71.8372V71.3H290.216V71.8
C288.813,71.8679,288.4,72.321,288.4,73.8379V77.0808
C289.512,76,290.115,75.7009,291.135,75.7009
C293.711,75.7009,295.599,78.0928,295.599,81.4968
C295.599,84.6936,293.855,86.8757,291.273,86.8757
C289.906,86.8757,289.072,86.3479,288.354,85.0159V86.6Z
M288.4,83.9578
C288.4,84.1187,288.616,84.4866,288.905,84.7856
C289.365,85.2915,289.894,85.5754,290.4,85.5754
C291.595,85.5754,292.199,84.1926,292.199,81.1746
C292.199,78.3228,291.539,77.0007,290.193,77.0007
C289.425,77.0007,288.749,77.5166,288.4,78.3687Z"/>
<path d="M302.073,86.876
C299.152,86.876,296.9,84.4622,296.9,81.3362
C296.9,78.0474,299.074,75.6782,302.073,75.6782
C305.04,75.6782,307.3,78.0701,307.3,81.2671
C307.3,84.4871,305.07,86.876,302.073,86.876Z
M302.096,86.0759
C303.43,86.0759,303.9,84.834,303.9,81.1292
C303.9,77.5872,303.432,76.4783,302.073,76.4783
C300.716,76.4783,300.3,77.6282,300.3,80.9221
C300.3,84.97,300.704,86.0759,302.096,86.0759Z"/>
<path d="M315.617,83.4978V86.8296H315.114
C314.976,86.4868,314.838,86.3696,314.562,86.3696
C314.424,86.3696,314.194,86.4165,313.826,86.5334
C313.068,86.7864,312.539,86.8752,312.032,86.8752
C309.94,86.8752,308.401,85.4504,308.401,83.5203
C308.401,82.0024,309.35,80.9443,311.688,79.9553
C313.251,79.2654,313.9,78.6904,313.9,77.9543
C313.9,77.0574,313.208,76.5005,312.17,76.5005
C310.561,76.5005,309.502,77.5215,309.02,79.4954H308.376V75.7H308.951
C309.204,76.1833,309.342,76.3442,309.549,76.3442
C309.664,76.3442,309.847,76.2983,310.077,76.2063
C310.698,75.9304,311.917,75.6775,312.561,75.6775
C314.654,75.6775,316.1,77.1033,316.1,79.1733
C316.1,80.8062,315.204,81.7952,312.929,82.7612
C311.365,83.4282,310.7,84.0032,310.7,84.7852
C310.7,85.5439,311.353,86.075,312.239,86.075
C312.837,86.075,313.458,85.8372,313.964,85.3831
C314.447,84.9231,314.7,84.5093,315.045,83.4971Z"/>
<path d="M321.5,86.6H317.068V86.051
C318.08,85.8442,318.3,85.6372,318.3,84.6941V77.9321
C318.3,76.9893,318.137,76.8052,317.068,76.5522V76.0005H322.565V76.5522
C321.76,76.6672,321.5,76.989,321.5,77.863V86.6Z
M319.874,91.845
C318.885,91.845,318.08,91.062,318.08,90.1221
C318.08,89.0872,318.839,88.2451,319.851,88.2451
C320.863,88.2451,321.645,89.04,321.645,90.0989
C321.645,91.0876,320.863,91.8447,319.874,91.8447Z"/>
<path d="M330.115,86.6H328V90.4897H327.378
C325.975,88.512,325.055,87.4768,323.56,86.2119V85.6H324.8V78.1392
C324.8,76.6443,325.772,75.7244,327.332,75.7244
C328.873,75.7244,329.793,76.4143,330.736,78.3L330.161,78.5532
C329.701,77.6794,329.333,77.3574,328.85,77.3574
C328.206,77.3574,328,77.7483,328,78.6682V85.6H330.115Z"/>
<path d="M335.6,86.6H331.168V86.051
C332.18,85.8442,332.4,85.6372,332.4,84.6941V77.9321
C332.4,76.9893,332.237,76.8052,331.168,76.5522V76.0005H336.665V76.5522
C335.86,76.6672,335.6,76.989,335.6,77.863V86.6Z
M333.974,91.845
C332.985,91.845,332.18,91.062,332.18,90.1221
C332.18,89.0872,332.939,88.2451,333.951,88.2451
C334.963,88.2451,335.745,89.04,335.745,90.0989
C335.745,91.0876,334.963,91.8447,333.974,91.8447Z"/>
<path d="M342.973,86.876
C340.052,86.876,337.8,84.4622,337.8,81.3362
C337.8,78.0474,339.974,75.6782,342.973,75.6782
C345.94,75.6782,348.2,78.0701,348.2,81.2671
C348.2,84.4871,345.97,86.876,342.973,86.876Z
M342.996,86.0759
C344.33,86.0759,344.8,84.834,344.8,81.1292
C344.8,77.5872,344.332,76.4783,342.973,76.4783
C341.616,76.4783,341.2,77.6282,341.2,80.9221
C341.2,84.97,341.604,86.0759,342.996,86.0759Z"/>
<path d="M353.577,86.6H349.183V86.051
C350.195,85.8901,350.4,85.6602,350.4,84.6941V77.9321
C350.4,76.9663,350.216,76.7593,349.183,76.5522V76.0005H354.726V76.5522
C353.875,76.6672,353.6,77.0122,353.6,77.863V84.0039
C353.6,84.0957,353.761,84.3257,353.99,84.5327
C354.496,85.0615,355.048,85.3376,355.577,85.3376
C356.382,85.3376,356.8,84.7168,356.8,83.4287V77.8628
C356.8,77.012,356.494,76.6438,355.692,76.552V76.0H361.097V76.552
C360.2,76.6208,360,76.897,360,77.8628V83.6357
C360,85.6135,358.769,86.8787,356.865,86.8787
C355.485,86.8787,354.428,86.2349,353.577,84.8777Z"/>
<path d="M392.847,76.6H392.755
C391.858,76.6,391.49,77.0786,390.34,79.7717L385.211,91.8215H384.568L379.462,79.2656
C378.588,77.1267,378.312,76.7817,377.208,76.5747V76H381.877V76.5747
C380.52,76.6665,379.991,76.9197,379.991,77.5176
C379.991,77.8164,380.175,78.3914,380.658,79.6335L381.003,80.5H386.177
C386.959,78.7236,387.235,77.9036,387.235,77.4026
C387.235,76.9197,386.937,76.6897,386.132,76.6438
C386.017,76.6438,385.718,76.6208,385.396,76.575V76H392.848L392.847,76.6Z
M381.347,81.4L383.509,87.0168L385.832,81.4Z"/>
<path d="M398.608,86.6H394.267V86.051
C395.256,85.9131,395.5,85.6143,395.5,84.6941V77.9321
C395.5,76.9893,395.272,76.7363,394.267,76.5522V76.0005H400.385V76.5522
C398.982,76.644,398.7,76.9431,398.7,78.3691V82.7161
C398.7,83.9119,399.347,84.9009,400.109,84.9009
C400.293,84.9009,400.5,84.74,400.753,84.3721
C401.19,83.7512,401.535,83.5762,402.133,83.5762
C402.984,83.5762,403.582,84.207,403.582,85.085
C403.582,86.1199,402.8,86.8757,401.719,86.8757
C400.567,86.8757,399.691,86.2559,398.608,84.7168Z"/>
<path d="M410.815,86.6H408.7V90.4897H408.078
C406.675,88.512,405.755,87.4768,404.26,86.2119V85.6H405.5V78.1392
C405.5,76.6443,406.472,75.7244,408.032,75.7244
C409.573,75.7244,410.493,76.4143,411.436,78.3L410.861,78.5532
C410.401,77.6794,410.033,77.3574,409.55,77.3574
C408.906,77.3574,408.7,77.7483,408.7,78.6682V85.6H410.815Z"/>
<path d="M416.3,86.6H411.868V86.051
C412.88,85.8442,413.1,85.6372,413.1,84.6941V77.9321
C413.1,76.9893,412.937,76.8052,411.868,76.5522V76.0005H417.365V76.5522
C416.56,76.6672,416.3,76.989,416.3,77.863V86.6Z
M414.674,91.845
C413.685,91.845,412.88,91.062,412.88,90.1221
C412.88,89.0872,413.639,88.2451,414.651,88.2451
C415.663,88.2451,416.445,89.04,416.445,90.0989
C416.445,91.0876,415.663,91.8447,414.674,91.8447Z"/>
<path d="M427.376,78.5068
C426.525,77.541,425.927,77.219,424.984,77.219
C422.983,77.219,421.7,79.22,421.7,82.3479
C421.7,84.7168,422.443,86.1528,423.65,86.1528
C424.018,86.1528,424.363,85.9739,424.501,85.729
C424.616,85.5222,424.6,85.5222,424.6,84.5562
C424.623,83.4292,425.042,82.9,425.904,82.9
C426.869,82.9,427.5,83.4521,427.5,84.3494
C427.5,85.7751,425.945,86.8792,423.903,86.8792
C420.775,86.8792,418.5,84.4412,418.5,81.1294
C418.5,77.9556,420.559,75.6785,423.397,75.6785
C425.168,75.6785,426.456,76.3914,427.79,78.0933Z"/>
<path d="M432.8,91.5H428.468V90.9958
C429.273,90.927,429.6,90.5129,429.6,89.6619V77.9319
C429.6,77.0811,429.223,76.6211,428.468,76.552V76.0H433.965V76.6
C433.206,76.6221,432.8,77.0439,432.8,77.9319Z"/>
<path d="M443.746,78.8748
C442.826,77.7478,442.113,77.3779,441.124,77.3779
C440.227,77.3779,439.56,77.7769,439.077,78.5527
C438.663,79.2805,438.479,80.0305,438.387,81.6H444.183
C444.045,83.5486,443.7,84.6394,442.964,85.5215
C442.205,86.4185,441.147,86.8752,439.882,86.8752
C437.008,86.8752,435.075,84.6,435.075,81.2434
C435.075,77.8855,436.961,75.6775,439.813,75.6775
C441.676,75.6775,442.803,76.4133,444.298,78.5522L443.746,78.8748Z
M438.272,82.5
C438.341,85.2485,438.755,86.0757,439.882,86.0757
C440.526,86.0757,440.963,85.7388,441.147,85.0847
C441.262,84.6479,441.308,84.0039,441.354,82.8308V82.5Z"/>
<path d="M469.29,91.5H464.437V90.9
C464.899,90.9,465.291,90.5701,466.4,89.3171V78.4153
C466.4,77.1045,466.054,76.7825,464.368,76.5754V76.0005H469.589V76.5754
C467.818,76.7822,467.4,77.2192,467.4,78.8523V88.0981L477.685,75.5862H478.3V89.1331
C478.3,90.4438,478.604,90.7429,480.123,90.9729V91.5H475.178V90.9729
C476.88,90.812,477.3,90.3291,477.3,88.696V81.6812Z"/>
<path d="M486.373,86.876
C483.452,86.876,481.2,84.4622,481.2,81.3362
C481.2,78.0474,483.374,75.6782,486.373,75.6782
C489.34,75.6782,491.6,78.0701,491.6,81.2671
C491.6,84.4871,489.37,86.876,486.373,86.876Z
M486.396,86.0759
C487.73,86.0759,488.2,84.834,488.2,81.1292
C488.2,77.5872,487.732,76.4783,486.373,76.4783
C485.016,76.4783,484.6,77.6282,484.6,80.9221
C484.6,84.97,485.004,86.0759,486.396,86.0759Z"/>
<path d="M500.023,75.7009
C501.001,76.0459,501.547,76.1377,503.025,76.2988L504.451,76.4597V76.9885
C503.439,77.0344,503.2,77.3335,503.2,78.3225V86.6H498.54V86.0505
C499.69,85.9587,500,85.6826,500,84.6936V78.1848
C499.227,77.426,498.736,77.1729,498.08,77.1729
C497.137,77.1729,496.8,77.6328,496.8,78.8057V86.6H492.468V86.0508
C493.411,85.8669,493.6,85.6599,493.6,84.6938V78.8979
C493.6,76.874,494.748,75.678,496.654,75.678
C497.862,75.678,498.675,76.0459,500.023,77.1958Z"/>
<path d="M509.777,86.6H505.383V86.051
C506.395,85.8901,506.6,85.6602,506.6,84.6941V77.9321
C506.6,76.9663,506.416,76.7593,505.383,76.5522V76.0005H510.926V76.5522
C510.075,76.6672,509.8,77.0122,509.8,77.863V84.0039
C509.8,84.0957,509.961,84.3257,510.19,84.5327
C510.696,85.0615,511.248,85.3376,511.777,85.3376
C512.582,85.3376,513,84.7168,513,83.4287V77.8628
C513,77.012,512.694,76.6438,511.892,76.552V76.0H517.297V76.552
C516.4,76.6208,516.2,76.897,516.2,77.8628V83.6357
C516.2,85.6135,514.969,86.8787,513.065,86.8787
C511.685,86.8787,510.628,86.2349,509.777,84.8777Z"/>
<path d="M13.2,9H19.7V32.7H26.2856V37.7H6.67188V32.7H13.2Z"/>
<path d="M29.7,9H35.7V21.4316
C36.9595,23.7,37.5896,24.3774,39.0176,24.3774
C40.7815,24.3774,41.4,23.2,41.4,20.8855V9H47.4V21.6414
C47.4,26.9333,44.2373,28.7773,41.1592,28.7773
C38.8914,28.7773,37.1692,27.8955,35.7832,25.8794H35.7V37.7H29.7Z"/>
<path d="M67.3538,14.2078
C65.4229,13.074,63.9529,12.6218,62.3159,12.6218
C59.46,12.6218,57.738,14.4468,57.4441,17.8H67.9
C68.0259,25.3447,64.415,28.7776,59.9221,28.7776
C54.9663,28.7776,51.3,24.3696,51.3,18.3237
C51.3,14.418,53.0662,8.62183,60.3,8.62183
C62.8188,8.62183,65.0869,9.20972,67.354,10.5537L67.3538,14.2078Z
M57.4,20.6
C57.4,23.5928,58.2549,25.3777,59.9219,25.3777
C61.5178,25.3777,62.2737,23.7849,62.3157,20.6Z"/>
<path d="M100.59,14.5439
C98.9939,13.5361,97.9438,13.2222,96.6418,13.2222
C93.7859,13.2222,91.8,15.481,91.8,18.8281
C91.8,21.936,93.7368,24.178,96.4319,24.178
C97.6917,24.178,98.8677,23.7952,100.338,22.9021V27.48
C98.2798,28.4458,96.8938,28.7778,95.1719,28.7778
C89.5859,28.7778,85.5,24.4958,85.5,18.5759
C85.5,12.864,89.6628,8.62207,95.1719,8.62207
C96.8518,8.62207,98.3638,8.95801,100.59,9.88184Z"/>
<path d="M121.94,13.9558
C121.142,13.4099,120.596,13.2,120.176,13.2
C119.672,13.2,119.6,13.4519,119.6,15.3V23.1958
C119.6,27.5637,116.276,28.7776,112.532,28.7776
C109.356,28.7776,107.112,28.0647,104.402,26.1357V21.7258
C107.032,23.8257,108.983,24.6777,111.104,24.6777
C112.784,24.6777,113.6,23.876,113.6,22.0198V21.3479
C107.475,19.332,103.1,17.4841,103.1,13.4941
C103.1,10.7222,105.313,8.62231,108.164,8.62231
C110.222,8.62231,111.734,9.37817,113.792,11.3523
C114.086,9.54639,115.094,8.66431,116.9,8.66431
C118.37,8.66431,119.798,9.21021,121.94,10.5122V13.9558Z
M113.6,13.9978
C112.27,12.948,111.713,12.7219,110.726,12.7219
C109.466,12.7219,108.6,13.5508,108.6,14.7539
C108.6,16.4758,110.309,17.4839,113.6,18.6597Z"/>
<path d="M137.914,14.7119
C136.192,13.6621,135.226,13.322,134.26,13.322
C132.664,13.322,132.1,14.5659,132.1,16.3499V24.6H137.62V28.4H132.1V34.4092H131.026L123.256,25.3374V24.6H126.1V15.2158
C126.1,10.26,129.505,8.62183,132.454,8.62183
C134.176,8.62183,135.604,9.04175,137.914,10.2598Z"/>
<path d="M170.636,10.2598
C173.215,9.08398,175.245,8.62183,177.274,8.62183
C181.516,8.62183,184.5,11.2256,184.5,14.9216
C184.5,21.5156,175,20.9695,175,23.5735
C175,24.4133,175.9,24.9773,177.4,24.9773
C178.324,24.9773,179.248,24.8464,180.256,24.5393
C181.307,24.2034,182.399,23.7415,183.744,23.0273V27.0173
C181.559,28.2351,179.543,28.7771,177.442,28.7771
C173.284,28.7771,170.3,26.2593,170.3,22.6072
C170.3,16.5173,179.1,17.0632,179.1,14.4172
C179.1,13.3254,178.185,12.7214,176.896,12.7214
C175.035,12.7214,173.089,13.3562,170.636,14.7534Z"/>
<path d="M205.64,13.9558
C204.842,13.4099,204.296,13.2,203.876,13.2
C203.372,13.2,203.3,13.4519,203.3,15.3V23.1958
C203.3,27.5637,199.976,28.7776,196.232,28.7776
C193.056,28.7776,190.812,28.0647,188.102,26.1357V21.7258
C190.732,23.8257,192.683,24.6777,194.804,24.6777
C196.484,24.6777,197.3,23.876,197.3,22.0198V21.3479
C191.175,19.332,186.8,17.4841,186.8,13.4941
C186.8,10.7222,189.013,8.62231,191.864,8.62231
C193.922,8.62231,195.434,9.37817,197.492,11.3523
C197.786,9.54639,198.794,8.66431,200.6,8.66431
C202.07,8.66431,203.498,9.21021,205.64,10.5122V13.9558Z
M197.3,13.9978
C195.97,12.948,195.413,12.7219,194.426,12.7219
C193.166,12.7219,192.3,13.5508,192.3,14.7539
C192.3,16.4758,194.009,17.4839,197.3,18.6597Z"/>
<path d="M221.614,14.7119
C219.892,13.6621,218.926,13.322,217.96,13.322
C216.364,13.322,215.8,14.5659,215.8,16.3499V24.6H221.32V28.4H215.8V34.4092H214.726L206.956,25.3374V24.6H209.8V15.2158
C209.8,10.26,213.205,8.62183,216.154,8.62183
C217.876,8.62183,219.304,9.04175,221.614,10.2598Z"/>
<path d="M300.4,18.6179
C300.4,24.9177,295.892,28.7778,290.92,28.7778
C286.174,28.7778,281.5,25.125,281.5,18.6179
C281.5,12.822,285.453,8.5,290.92,8.5
C296.464,8.5,300.4,12.74,300.4,18.6179Z
M294,18.6179
C294,14.6699,293.072,12.9,290.92,12.9
C288.82,12.9,287.8,14.666,287.8,18.6179
C287.8,22.3557,288.812,24.3777,290.92,24.3777
C293.062,24.3777,294,22.3599,294,18.6179Z"/>
<path d="M304.5,9H310.5V21.2637
C311.297,23.2795,312.389,24.4,313.817,24.4
C315.497,24.4,316.199,23.0447,316.199,20.8857V9H322.199V21.8516
C322.199,26.3455,319.728,28.7773,316.043,28.7773
C313.775,28.7773,312.011,27.7705,310.583,25.6736H310.499V28.4H304.5Z"/>
<path d="M398.414,14.7119
C396.692,13.6621,395.726,13.322,394.76,13.322
C393.164,13.322,392.6,14.5659,392.6,16.3499V24.6H398.12V28.4H392.6V34.4092H391.526L383.756,25.3374V24.6H386.6V15.2158
C386.6,10.26,390.005,8.62183,392.954,8.62183
C394.676,8.62183,396.104,9.04175,398.414,10.2598Z"/>
<path d="M402.3,9H408.3V21.4316
C409.559,23.7,410.189,24.3774,411.617,24.3774
C413.381,24.3774,413.999,23.2,413.999,20.8855V9H419.999V21.6414
C419.999,26.9333,416.837,28.7773,413.759,28.7773
C411.491,28.7773,409.769,27.8955,408.383,25.8794H408.299V37.7H402.299Z"/>
<path d="M439.954,14.2078
C438.023,13.074,436.553,12.6218,434.916,12.6218
C432.06,12.6218,430.338,14.4468,430.044,17.8H440.5
C440.626,25.3447,437.015,28.7776,432.522,28.7776
C427.566,28.7776,423.9,24.3696,423.9,18.3237
C423.9,14.418,425.666,8.62183,432.9,8.62183
C435.419,8.62183,437.687,9.20972,439.954,10.5537V14.2078Z
M430,20.6
C430,23.5928,430.855,25.3777,432.522,25.3777
C434.118,25.3777,434.874,23.7849,434.916,20.6Z"/>
<path d="M459,9H465V21.4316
C466.152,23.3635,467.176,24.2776,468.457,24.2776
C469.969,24.2776,470.699,22.8118,470.699,20.4238V9H476.699V21.6
C477.771,23.4058,478.972,24.2778,480.301,24.2778
C482.191,24.2778,482.499,22.6021,482.499,19.542V9H488.499V21.8938
C488.499,26.8076,485.093,28.7776,482.233,28.7776
C479.587,28.7776,477.655,27.4768,476.311,24.8337
C475.387,27.3535,473.455,28.7776,470.893,28.7776
C468.625,28.7776,466.735,27.7278,465.139,25.4177H464.999V28.4H458.999Z"/>
<path d="M510.74,13.9558
C509.942,13.4099,509.396,13.2,508.976,13.2
C508.472,13.2,508.4,13.4519,508.4,15.3V23.1958
C508.4,27.5637,505.076,28.7776,501.332,28.7776
C498.156,28.7776,495.912,28.0647,493.202,26.1357V21.7258
C495.832,23.8257,497.783,24.6777,499.904,24.6777
C501.584,24.6777,502.4,23.876,502.4,22.0198V21.3479
C496.275,19.332,491.9,17.4841,491.9,13.4941
C491.9,10.7222,494.113,8.62231,496.964,8.62231
C499.022,8.62231,500.534,9.37817,502.592,11.3523
C502.886,9.54639,503.894,8.66431,505.7,8.66431
C507.17,8.66431,508.598,9.21021,510.74,10.5122V13.9558Z
M502.4,13.9978
C501.07,12.948,500.513,12.7219,499.526,12.7219
C498.266,12.7219,497.4,13.5508,497.4,14.7539
C497.4,16.4758,499.109,17.4839,502.4,18.6597Z"/>
<path d="M526.814,14.7119
C525.092,13.6621,524.126,13.322,523.16,13.322
C521.564,13.322,521,14.5659,521,16.3499V24.6H526.52V28.4H521V34.4092H519.926L512.156,25.3374V24.6H515V15.2158
C515,10.26,518.405,8.62183,521.354,8.62183
C523.076,8.62183,524.504,9.04175,526.814,10.2598Z"/>
<path d="M534.012,15.3
C532.164,15.3,530.652,13.8298,530.652,11.9819
C530.652,10.134,532.164,8.62207,534.012,8.62207
C535.86,8.62207,537.33,10.134,537.33,11.9819
C537.33,13.8298,535.86,15.3,534.012,15.3Z"/>
<g fill="none" stroke="#000000" stroke-width="4">
<path stroke-linecap="round" d="M77,221L255,329L379,243
M195,96.5L286,307.5
M297,95L385,213L431,169
M31,97L75,185L119,97
M404,97L438,141L492,97"/>
<path d="M39,69V47
M112,69V47
M193,69V47
M301,69V47
M412,69V47
M493,69V47"/></g></g></svg>
